<svg viewBox="0 0 55 23" xmlns="http://www.w3.org/2000/svg"><path fill-rule="evenodd" clip-rule="evenodd" d="M28.41 4.065c4.65 0 8.897.694 12.537 1.685-1.113 1.785-1.921 3.668-2.022 5.65 0 2.182.707 4.066 1.92 5.85-3.74.991-7.987 1.685-12.536 1.685-2.932 0-5.46-.198-7.785-.595L13.649 23H0l5.864-6.147h8.695c-4.65-1.586-6.976-3.47-6.976-3.47V9.617s2.224-1.883 6.875-3.47H5.965L.101 0H13.75l6.875 4.66c2.224-.397 4.853-.595 7.785-.595zM42.463 11.5c0-1.586.708-3.173 2.022-4.759C50.955 8.922 55 11.5 55 11.5s-4.044 2.577-10.515 4.759c-1.314-1.587-2.022-3.173-2.022-4.76z"/></svg>