<svg viewBox="0 0 40 62" xmlns="http://www.w3.org/2000/svg"><path fill-rule="evenodd" clip-rule="evenodd" d="M22.344 2.19h11.671L40 27.566c-.798-.498-1.596-.995-2.593-.995-1.266 0-2.151.758-2.842 1.35l-.051.043c-.599.597-1.098.896-1.397.896-.2 0-.399-.1-.598-.2-.3-.099-.599-.298-.898-.597l-.167-.144c-.66-.573-1.44-1.249-2.726-1.249-1.265 0-2.15.758-2.841 1.35l-.052.043c-.598.498-1.097.797-1.396.797-.3 0-.798-.299-1.496-.797l-.051-.043c-.691-.592-1.577-1.35-2.842-1.35-.3 0-.599 0-.898.1-.761.168-1.308.624-1.76 1a14.1 14.1 0 01-.235.194c-.234.116-.433.267-.598.392a2.212 2.212 0 01-.3.205 7.118 7.118 0 00-.299.108c-.138.053-.238.091-.3.091-.298 0-.797-.299-1.495-.796l-.051-.044c-.691-.591-1.577-1.35-2.842-1.35-1.078 0-1.88.62-2.522 1.114-.13.1-.253.196-.371.28-.698.497-1.197.796-1.496.796-.2 0-.698-.199-1.397-.796l-.167-.144c-.66-.574-1.439-1.25-2.725-1.25-.998 0-1.796.498-2.594.996L6.085 2.189h11.67C17.756.995 18.754 0 20.05 0s2.294.995 2.294 2.19zm-7.182 35.527c-.3.995-.2 2.19 0 3.582.225 1.169.593 2.499.992 3.946.486 1.758 1.019 3.688 1.402 5.708h5.087c.406-2.083.98-4.099 1.508-5.95.38-1.332.736-2.579.986-3.704.3-1.393.3-2.687 0-3.582-.3-.896-.898-1.593-1.995-2.29h-5.985c-1.197.697-1.796 1.394-1.995 2.29zm11.77 19.904H13.168c-1.297 0-2.294.995-2.294 2.19V62h18.354v-2.19c0-1.194-.998-2.189-2.294-2.189zm-3.49-4.478h-6.883c-.699 0-1.098.497-1.098 1.094 0 .597.5 1.095 1.098 1.095h6.883c.698 0 1.097-.498 1.097-1.095.1-.597-.4-1.094-1.098-1.094zM19.75 28.85c.137-.052.237-.09.299-.09.2 0 .598.298 1.097.696v3.583h-2.294v-3.682c.1-.05.2-.124.3-.2.099-.074.199-.148.298-.198.115-.038.215-.076.3-.109z"/></svg>