<svg width="22" height="28" viewBox="0 0 22 28" fill="none" xmlns="http://www.w3.org/2000/svg">
<path d="M22 15.5849C22 13.2075 21.698 10.8302 21.698 8.55189C21.698 7.75944 21.5974 7.06604 21.4967 6.27359C21.3961 5.97642 21.3961 5.58019 21.2954 5.18396C20.9935 4.98585 21.0941 4.58962 20.7922 4.39151C20.3896 4.1934 19.5844 4.29245 19.0811 4.1934C18.3766 4.1934 17.7727 4.09434 17.1688 3.99528C15.2564 3.89623 13.1427 3.89623 11.1297 3.89623C9.11669 3.89623 7.10367 3.79717 5.39261 3.5H3.17829C3.07764 3.5 3.07764 3.59906 2.97699 3.59906C2.37308 3.59906 1.86983 3.79717 1.36657 3.89623C1.16527 3.99528 0.963971 4.09434 0.662018 4.1934C0.561367 4.39151 0.158762 4.29245 0.0581108 4.58962C-0.143191 4.78774 0.259412 5.08491 0.0581108 5.18396V6.07547C0.259412 6.17453 0.0581131 6.66981 0.158764 6.86793V7.85849C0.158764 9.14623 0.259413 10.2359 0.259413 11.5236C0.762667 14.2972 0.662019 17.9623 0.360066 20.8349C0.561368 21.4292 0.76267 21.9245 0.863321 22.5189C1.16527 23.0142 1.16527 23.6085 1.56787 24.0047C2.07113 24.2028 2.77569 24.2028 3.48024 24.2028C3.88284 24.3019 4.1848 24.5 4.5874 24.5C7.40562 24.3019 10.1232 24.3019 13.0421 24.3019C15.7596 24.5 18.8798 24.5 21.3961 24.1038C21.5974 24.0047 21.4967 23.6085 21.5974 23.3113C21.4967 22.9151 21.7987 22.9151 21.7987 22.5189C22 20.4387 22 18.0613 22 15.5849ZM8.91539 9.4434C9.7206 9.24528 10.4252 9.14623 11.331 9.14623C12.0356 9.24528 12.6395 9.4434 13.2434 9.64151C13.344 9.83962 13.0421 10.1368 13.4447 10.3349V10.3349C13.5453 10.3349 13.5453 10.3349 13.646 10.434C14.0486 10.434 14.4512 10.6321 14.7531 10.8302C15.2564 10.9292 15.2564 11.3255 15.8603 11.2264C15.7596 11.4245 15.7596 11.7217 15.7596 12.0189C16.0616 13.2075 16.2629 14.7925 16.0616 16.2783C15.8603 16.4764 15.8603 16.6745 15.7596 16.9717C15.4577 17.2689 15.2564 17.7642 14.9544 18.0613C14.8538 18.2594 14.6525 18.4575 14.4512 18.5566C14.3505 18.7547 14.2499 19.0519 13.9479 19.0519C13.646 19.25 13.344 19.0519 13.1427 18.9528C12.7401 19.1509 12.2369 19.25 11.9349 19.5472C11.1297 19.4481 10.3245 19.3491 9.51929 19.25C9.31799 19.1509 9.01604 18.9528 8.71409 18.9528C8.51278 18.7547 8.21083 18.5566 7.90888 18.4575C7.80823 18.3585 7.60693 18.3585 7.40563 18.2594C7.20432 18.2594 7.20432 18.0613 6.90237 18.0613C6.80172 17.6651 6.49977 17.467 6.39912 16.9717C6.19782 16.6745 6.09716 16.1792 5.89586 15.783C5.89586 14.3962 5.99651 13.1085 6.29846 12.0189C6.60042 11.4245 7.10367 10.9292 7.40563 10.3349C7.60693 10.3349 7.80823 10.2358 7.80823 10.0377C8.11018 10.1368 8.21083 9.93868 8.51278 9.93868C8.71409 9.93868 8.71409 9.64151 8.91539 9.4434ZM7.20432 6.76887C7.10367 6.4717 7.10367 6.07547 7.10367 5.67925C7.10367 5.38208 7.40563 5.38208 7.40563 5.18396C7.40563 5.08491 7.30497 5.08491 7.20432 5.08491C7.30497 4.98585 7.90888 4.98585 8.00953 5.08491C8.11018 5.58019 7.60693 5.58019 7.50627 5.7783C7.50627 5.97642 7.80823 5.7783 8.00953 5.87736C8.00953 6.76887 7.90888 7.36321 8.00953 8.05661H7.50627C7.50627 8.25472 7.70758 8.25472 8.00953 8.25472C7.90888 8.55189 8.11018 8.65094 8.11018 8.84906C7.90888 9.04717 7.40562 8.84906 7.00302 8.94811C7.00302 8.35377 7.30497 7.56132 7.20432 6.76887ZM6.49977 5.18396C6.60042 5.18396 6.60042 5.18396 6.70107 5.28302C6.90237 5.58019 6.70107 5.97642 6.60042 6.17453C6.39911 5.97642 6.60042 5.48113 6.49977 5.18396ZM6.70107 6.96698C6.60042 6.86792 6.49977 6.76887 6.49977 6.4717C6.70107 6.57075 6.70107 6.76887 6.70107 6.96698ZM6.70107 8.35377C6.60042 8.45283 6.60042 8.35377 6.60042 8.15566C6.70107 8.0566 6.70107 8.25472 6.70107 8.35377ZM6.49977 8.55189C6.70107 8.55189 6.60042 8.75 6.70107 8.75C6.70107 8.94812 6.39911 8.94811 6.29846 8.84906C6.39911 8.75 6.49977 8.65094 6.49977 8.55189ZM4.1848 7.36321C4.1848 7.26415 4.1848 7.16509 4.08414 7.16509C3.98349 6.4717 4.1848 5.7783 4.08414 5.18396C4.3861 4.98585 4.88935 5.18396 5.19131 5.08491V6.17453C5.09066 6.27359 4.99 6.27359 4.7887 6.27359C4.68805 6.57076 5.09066 6.37264 5.19131 6.57076C5.19131 7.46227 5.09066 8.35377 5.39261 8.94811C4.7887 8.84906 4.48675 9.04717 3.9835 9.04717C4.08415 8.45283 3.9835 7.66038 4.48675 7.46226C4.48675 7.36321 4.1848 7.46226 4.1848 7.36321ZM3.68154 7.36321C3.48024 7.36321 3.48024 6.86793 3.58089 6.76887C3.88284 6.76887 3.78219 7.26415 3.68154 7.36321ZM3.48024 8.35377C3.58089 8.0566 3.48024 8.0566 3.58089 7.66038C3.78219 7.66038 3.78219 8.45283 3.48024 8.35377ZM3.68154 6.27359C3.37959 6.37264 3.37959 5.97642 3.48024 5.87736C3.78219 5.87736 3.88285 6.17453 3.68154 6.27359ZM3.68154 5.18396C3.68154 5.38208 3.58089 5.38208 3.58089 5.48113C3.37959 5.48113 3.48024 5.28302 3.37959 5.28302C3.48024 5.18396 3.58089 5.18396 3.68154 5.18396ZM3.48024 8.84906C3.58089 8.84906 3.58089 9.14623 3.37959 9.04717C3.48024 9.04717 3.48024 8.94811 3.48024 8.84906ZM2.77568 5.18396C2.77568 5.48113 2.37308 5.48113 2.37308 5.18396H2.77568ZM1.76918 5.28302C1.76918 5.48113 1.46723 5.48113 1.36657 5.67925C1.16527 5.48113 1.46722 5.18396 1.76918 5.28302ZM1.36657 5.97641C1.56788 5.7783 1.86983 5.58019 2.07113 5.38208C2.07113 5.28302 2.17178 5.28302 2.17178 5.18396H2.37308C2.47373 5.58019 2.07113 5.48113 2.07113 5.67925C2.07113 5.7783 1.97048 5.7783 1.97048 5.87736C1.97048 6.17453 2.07113 6.4717 2.07113 6.86793C1.76918 6.86793 1.76918 7.1651 1.46722 7.06604C1.46722 6.66981 1.26592 6.4717 1.36657 5.97641ZM1.46722 9.24528V7.66038C1.66853 7.46226 1.86983 7.26415 2.07113 7.16509C2.37308 7.66038 2.27243 8.55189 2.57438 9.04717C2.17178 9.14623 1.76918 9.14623 1.46722 9.24528ZM19.7857 20.2406C19.685 21.2311 19.5844 22.2217 19.3831 23.0142C16.4642 23.1132 13.344 23.0141 10.4252 23.2123C10.2238 23.2123 10.1232 23.2123 10.2238 23.0142C9.9219 23.0142 9.9219 23.2123 9.72059 23.2123C9.9219 22.9151 10.1232 22.3207 9.9219 21.9245C9.11669 21.9245 9.11669 22.717 8.81474 23.2123C8.11018 23.1132 7.70758 23.3113 7.00302 23.3113C7.20432 22.6179 7.70758 22.3208 7.90888 21.6274C7.50628 21.1321 6.90237 21.7264 6.70107 22.1226C6.49977 22.6179 6.09716 22.9151 5.89586 23.4104H4.88935C5.09066 22.9151 5.39261 22.5189 5.69456 22.0236C5.89586 21.5283 6.29847 21.3302 6.39912 20.6368C6.19782 20.3396 5.99651 20.6368 5.69456 20.6368C5.59391 20.8349 5.39261 20.934 5.29196 21.1321C5.09065 21.5283 4.7887 21.8255 4.5874 22.2217C4.3861 22.4198 4.28545 22.2217 4.08414 22.4198C3.68154 22.717 3.48024 23.1132 3.07764 23.4104C2.87633 23.3113 3.07764 23.0142 3.27894 23.0142C3.27894 22.816 3.17829 22.5189 3.37959 22.4198C3.48024 22.0236 3.58089 21.8255 3.78219 21.5283C3.88284 20.8349 4.28545 20.3396 4.48675 19.6462C3.88284 19.7453 3.78219 20.2406 3.48024 20.6368C3.27894 21.033 2.97699 21.4292 2.77568 21.9245C2.57438 21.8255 2.77569 21.3302 2.67504 21.1321C2.77569 20.5377 2.97699 20.0424 3.07764 19.4481C3.17829 19.25 3.27894 18.9528 3.27894 18.6557C3.48024 18.4575 3.27894 18.0613 3.17829 17.8632C2.97699 17.8632 2.77569 17.9623 2.67504 18.1604C2.47373 18.1604 2.47373 18.6557 2.37308 18.4575C2.37308 15.8821 1.86983 13.7028 1.86983 11.1274C1.86983 10.8302 1.66853 10.7311 1.66853 10.434C3.27894 10.434 4.7887 10.533 6.49977 10.6321C6.39912 10.7311 6.29847 10.9292 6.19781 11.0283C6.09716 11.1274 5.99651 11.2264 5.79521 11.3255C5.1913 13.0094 4.7887 15.2877 5.19131 17.467C5.39261 18.0613 5.79521 18.4575 6.19781 18.8538C7.10367 19.3491 7.80823 19.9434 8.71409 20.5377C10.4252 20.934 12.5388 20.934 14.2499 20.5377C14.4512 20.4387 14.7531 20.3396 14.9544 20.1415C16.3636 18.9528 17.7727 17.6651 17.974 15.2877V13.9009C17.7727 12.316 17.2694 11.0283 16.2629 10.3349C16.5648 10.1368 17.3701 10.3349 17.974 10.434C18.1753 10.434 18.3766 10.434 18.6785 10.434C19.0811 10.434 19.5844 10.3349 20.0876 10.434C20.1883 10.6321 20.1883 10.9292 20.2889 11.2264C20.1883 12.9104 20.0876 14.4953 20.0876 16.2783C20.1883 16.7736 20.1883 17.2689 20.2889 17.6651C20.0876 18.4575 19.987 19.3491 19.7857 20.2406ZM20.1883 9.14623C19.5844 9.04717 18.9805 8.84906 18.2759 8.75C18.3766 8.45283 19.0811 8.75 19.2824 8.55189C19.685 8.35377 19.5844 7.66038 19.5844 7.06604C19.5844 6.76887 19.685 6.4717 19.685 5.97641C19.2824 4.98585 17.8733 5.58019 16.7662 5.48113C16.5648 6.17453 16.2629 7.26415 16.4642 8.15566C16.6655 8.65094 17.4707 8.45283 17.974 8.65094C17.8733 8.94811 17.2694 8.75 16.9675 8.75C16.6655 8.65095 16.2629 8.65094 15.9609 8.55189C13.646 8.65094 11.633 8.55189 9.41864 8.75C9.51929 7.56132 9.51929 6.27359 9.31799 5.18396H12.4382C12.1362 5.58019 11.5323 5.67924 11.1297 5.97641C10.7271 6.17453 10.2238 6.4717 10.0225 6.86793C10.2238 6.96698 10.5258 6.66981 10.8278 6.4717C11.2304 6.37264 11.331 6.07547 11.633 5.97641C12.0356 5.58019 12.7401 5.38208 13.344 5.08491C13.7466 5.08491 14.0486 5.08491 14.3505 5.18396C15.659 5.18396 16.8668 5.28302 18.1753 5.28302C18.7792 5.38208 19.685 5.38208 20.1883 5.58019C20.2889 5.87736 20.3896 6.17453 20.4902 6.4717C20.3896 7.46226 20.1883 8.25472 20.1883 9.14623ZM14.2499 5.48113C14.3505 5.38208 14.2499 5.38208 14.2499 5.48113V5.48113ZM14.2499 5.48113C13.7466 5.67924 13.2434 5.7783 12.8408 6.17453C13.344 5.97642 13.9479 5.87736 14.2499 5.48113ZM15.357 6.07547C15.4577 5.97642 15.357 5.97642 15.357 6.07547V6.07547ZM13.5453 6.96698C14.2499 6.76887 14.7531 6.37264 15.2564 6.07547C14.8538 6.07547 14.6525 6.37264 14.2499 6.4717C14.1492 6.66981 13.7466 6.66981 13.5453 6.96698ZM12.8408 6.17453C12.7401 6.17453 12.9414 6.27359 12.8408 6.17453V6.17453ZM12.2369 6.76887C12.3375 6.66981 12.2369 6.66981 12.2369 6.76887V6.76887ZM12.1362 6.86793C12.2369 6.86793 12.2369 6.76887 12.1362 6.86793C12.1362 6.76887 12.1362 6.76887 12.1362 6.86793ZM12.0356 6.86793C12.1362 6.86793 12.1362 6.86793 12.0356 6.86793C12.0356 6.76887 12.0356 6.86793 12.0356 6.86793ZM11.2304 7.46226C11.5323 7.36321 11.8343 7.1651 12.0356 6.86793C11.7336 7.06604 11.4317 7.26415 11.2304 7.46226ZM13.5453 8.45283C14.0486 8.45283 14.2499 8.0566 14.7531 7.95755C15.0551 7.66038 15.5583 7.56132 15.7596 7.16509C15.1557 7.16509 14.9544 7.56132 14.5518 7.66038C14.2499 8.0566 13.7466 8.15566 13.5453 8.45283ZM11.2304 7.46226C10.9284 7.46226 11.2304 7.75943 11.2304 7.46226V7.46226ZM10.6265 7.85849C10.7271 7.85849 10.8278 7.85849 10.6265 7.85849C10.7271 7.75943 10.6265 7.85849 10.6265 7.85849ZM13.5453 8.45283C13.344 8.55189 13.5453 8.55189 13.5453 8.45283V8.45283ZM12.3375 10.2359C12.1362 10.0377 11.633 10.0377 11.331 9.83962C10.6265 9.83962 10.1232 9.93868 9.61994 10.0377C9.31799 10.2358 9.01604 10.3349 8.71409 10.533C8.41213 10.7311 8.31148 10.9292 7.90888 11.0283C7.70758 11.2264 7.50628 11.5236 7.20432 11.6226C7.20432 11.8208 7.00302 11.9198 6.90237 12.0189C6.80172 12.1179 6.80172 12.316 6.70107 12.4151C6.70107 12.5141 6.70107 12.7123 6.60042 12.7123C6.70107 14.1981 6.90237 15.5849 7.30497 16.8726C7.60693 17.467 8.31148 17.6651 8.71409 18.1604C9.31799 18.4575 10.0225 18.5566 10.8278 18.6557C11.1297 18.5566 11.4317 18.5566 11.7336 18.5566C12.9414 18.3585 13.8473 17.8632 14.5518 17.1698C14.6525 16.8726 14.8538 16.6745 15.0551 16.4764C14.7531 15.783 15.357 15.3868 15.5583 14.8915C15.5583 13.6038 15.357 12.4151 14.9544 11.5236C14.6525 10.9292 14.0486 10.7311 13.5453 10.434C13.4447 10.434 13.344 10.434 13.344 10.3349C13.1427 10.2358 12.6395 10.1368 12.3375 10.2359ZM8.91539 14.5943C8.81474 14.4953 8.81474 14.3962 8.71409 14.1981C9.01604 14.0991 8.91539 14.3962 8.91539 14.5943ZM9.01604 14.8915C9.01604 14.7925 9.11669 14.8915 9.01604 14.8915C9.01604 15.0896 9.01604 14.9906 9.01604 14.8915ZM9.41864 12.8113C9.41864 12.7123 9.51929 12.8113 9.41864 12.8113C9.51929 12.9104 9.41864 12.9104 9.41864 12.8113ZM11.1297 10.7311C10.9284 11.0283 11.1297 11.3255 11.2304 11.5236C10.9284 11.5236 10.6265 10.7311 11.1297 10.7311ZM11.5323 14.5943C11.4317 14.5943 11.5323 14.5943 11.5323 14.5943C11.633 14.5943 11.5323 14.6934 11.5323 14.5943ZM12.2369 17.467C12.2369 17.3679 12.3375 17.467 12.4382 17.467C12.4382 17.566 12.2369 17.566 12.2369 17.467ZM14.4512 14.9906C14.2499 14.8915 14.3505 15.1887 14.0486 15.1887C14.1492 14.9906 14.1492 14.8915 14.2499 14.6934C14.4512 14.6934 14.5518 14.7924 14.4512 14.9906ZM13.344 11.2264C13.5453 11.3255 13.7466 11.4245 13.9479 11.6226C14.0486 11.8208 14.1492 12.0189 14.3505 12.1179C14.4512 12.9104 14.5518 13.6038 14.5518 14.4953C14.2499 14.5943 14.1492 14.7925 13.8473 14.8915C13.0421 14.8915 12.4382 14.6934 11.9349 14.3962C11.7336 14.0991 11.5323 13.9009 11.4317 13.6038V12.5142C11.633 12.316 11.7336 12.1179 11.9349 11.9198C12.1362 11.8208 12.4382 11.7217 12.4382 11.3255C12.4382 11.2264 12.3375 11.2264 12.3375 11.1274C12.5388 11.1274 12.5388 11.3255 12.7401 11.3255C12.9414 11.3255 13.0421 11.1274 13.344 11.2264Z" fill="#231F20"/>
</svg>
