<?xml version="1.0" encoding="utf-8"?>
<svg xmlns="http://www.w3.org/2000/svg" xmlns:xlink="http://www.w3.org/1999/xlink">
<style>:root>svg{display:none}:root>svg:target{display:block}</style>
<svg id="desktop" viewBox="0 0 149 72">
  <use href="#blot-d" mask="url(#logo-mask)" />
</svg>
<svg id="tablet" viewBox="16.39 13.66 120.19 48.88">
  <use href="#blot-t" mask="url(#logo-mask)" />
</svg>
<svg id="mobile" viewBox="24.69 18.11 103.22 41.72">
  <use href="#blot-m" />
  <use href="#logo" />
</svg>
<svg id="logotype" viewBox="24.69 18.11 103.22 34.41">
  <use href="#logo" />
</svg>
<defs>
  <mask id="logo-mask">
    <path d="M0 0h999v999H0z" fill="#fff"/>
    <use href="#logo" />
  </mask>
  <path id="blot-d" d="M144.16 31.107c-1.51 1.086-3.121 1.875-4.731 2.764 0-1.678-.101-3.455-.604-5.035.1-.296.1-.69.1-.987.403-2.961.705-7.009-2.013-9.082-.302-.296-1.208 0-1.913.297-.201-.198-.302-.297-.503-.395-.101-.198-.201-.494-.201-.691 0-.099-.202-.198-.403-.198.302-.395.302-.79-.402-1.085-.403-.198-.806-.297-1.108-.395-.1-.099-.1-.099-.201-.099-.906-.296-1.913-.494-2.919-.691.1-.296.402-.79.604-.987.1-.198.302-.296.402-.395l.202-.197s.1 0 .1-.1l.101-.098c.403-.296.805-.888.201-1.184-.604-.297-1.51-.1-2.013.197-.906.691-1.611 1.382-2.114 2.37-2.013-.198-4.027-.198-6.141-.1.101-.098.101-.197.101-.296.201-.592-.906-.493-1.208-.493-1.61.197-3.12.395-4.731.592 1.409-3.751 3.121-8.49 1.007-12.142-1.208-2.073-3.926-2.566-6.141-2.665-2.416-.099-4.932.494-7.046 1.58-4.832 2.566-7.148 7.6-8.255 12.93-.503-.69-2.315-.394-2.617.494-.1.297-.201.593-.302.988-.202.197-.302.394-.302.592v.197h-.201c0-.098 0-.197.1-.296.1-.099.201-.197.302-.395.604-2.27 1.208-4.54 1.913-6.712.302-.79-2.517-.395-2.819.395-.402 1.184-.805 2.369-1.107 3.553-.201.099-.403.198-.403.296v.1a.777.777 0 0 0-.503-.198v-.987c0-.395-2.819 0-2.819.79v1.579c-.201.098-.302.197-.503.296l-.201.197c-.101.099-.101.198-.101.198v.098l-.1.1c-.101.098-.202.295 0 .493.2.197.503.197.704.197h.1v.494h-.704l-.403-.099c0-.395-.704-.494-1.409-.296v-.099c-.1-.592-.201-1.184-.201-1.777.201-.098.503-.197.704-.296.202-.099.302-.197.302-.395v-.197c0-.198-.402-.198-.503-.198h-.604c-.1-1.283-.1-2.566-.1-3.85 0-.79-2.82-.296-2.82.79 0 1.777 0 3.554.202 5.232h-.302v-1.48c0-.988-1.308-1.185-2.114-.79.302-.296.504-.593.403-.987-.403-1.382-.805-2.764-1.007-4.245-.201-1.382-3.02-.691-2.818.79.201 1.48.604 2.862 1.006 4.244.202.79 1.309.889 2.114.494-.201.197-.402.493-.402.79v.592c-.302-.296-.504-.296-.906-.296-1.108 0-1.712.888-1.41 1.48-.201 0-.302-.098-.503-.098-.403-1.185-.705-2.468-.705-3.751 0-.889-1.308-.987-2.114-.691v-.198c-.402-.79-.604-1.678-.805-2.468-.302-1.283-3.221-.592-2.819.79.202.592.302 1.283.504 1.876h-.1c-.303.098-.605.197-.907.394-.805.1-1.812.593-1.812 1.185.1.494.1.987.201 1.382-.402.099-1.006.099-1.51.197-.301-.79-.503-1.579-.603-2.369-.101-.888-1.611-.888-2.316-.296-.805-2.073-1.812-3.948-3.12-5.725-2.718-3.356-7.248-4.541-11.375-3.653-1.913.395-3.725 1.185-5.034 2.567-1.207 1.382-1.409 3.06-1.207 4.738.2 1.48.603 3.949 1.61 5.923-.403 0-.705 0-.906.099-.302.098-.604.197-.805.395-1.913 0-3.926 0-5.839-.1-4.228-.197-8.355-.888-12.583-.69-.906 0-1.51.69-1.51 1.283a4.267 4.267 0 0 0-2.114 2.27c-1.711-1.085-3.523-2.27-5.335-3.158-.704-.395-3.322.69-2.315 1.184 1.812.889 3.624 2.073 5.335 3.16.503.295 1.309.098 1.812-.1 0 0 .1 0 .201-.098-.302 1.382-.201 3.06.202 4.442 0 .098.1.197.201.296v1.185c-.403.197-.705.493-.805.79a28.726 28.726 0 0 0-.302 4.145c-.302.198-.504.494-.504.79-.201 3.257 0 6.614.504 9.871.201 2.665.704 5.232 1.208 7.897.1.395.1.79.201 1.283-.302 1.086-.403 2.37-.201 3.455-.906.198-1.712.889-1.208 1.58.805 1.184 1.61 1.974 2.617 2.566-.604-.098-1.41.1-1.913.593-.805.79-1.711 1.48-2.516 2.27-.403.395-.302.889.302 1.086.704.197 1.51-.099 2.013-.494.805-.79 1.711-1.48 2.517-2.27.2-.197.302-.494.2-.691 3.222 1.678 7.249 1.283 11.175.888-.906 1.58-1.51 3.258-2.215 4.936-.302.691 2.517.395 2.819-.395.604-1.678 1.208-3.257 2.114-4.837 3.724.099 7.55.099 11.274.099.1.197.403.296.705.296 3.322.296 6.543-.099 9.764-.69 4.832-.198 9.664-.494 14.496-.79 7.55-.198 15.2-.297 22.75-.297l.302.296c.302.297.604.297 1.006.297h.202c.704 0 1.41.098 2.114.098.201 0 .302.099.604 0 .805.099 1.61.099 2.315.198.201.197.503.296.805.395 3.826.296 7.651.493 11.476.69.101.198.503.297.805.297 7.147.098 15.402 2.764 21.744-1.678.503-.395.302-.889-.302-.988h-.302c1.208-2.764 2.214-5.527 2.919-8.489.403-.197.604-.494.604-.888 0-1.185.201-2.37.403-3.554.201-.888.302-1.777.402-2.665.403-2.172.806-4.344 1.007-6.417 2.315-1.086 4.53-2.27 6.644-3.75 1.61-1.185-.805-1.876-1.812-1.185zM88.392 16.3l-.1.098c.1-.296.1-.592.2-.888h.101c0 .197-.1.494-.201.79zm-24.663-3.752c.1.198.604.198.805.198.403 0 .806-.1 1.108-.198.402-.197 1.107-.592.805-1.086-.403-.592-.604-1.184-1.007-1.777-.1-.197-.604-.197-.805-.197-.403 0-.805.099-1.107.197-.403.198-1.108.593-.806 1.086.302.593.604 1.284 1.007 1.777zM20.846 10.87c.201.593 1.107.593 1.61.494.504-.099 1.41-.592 1.209-1.283-.202-.593-.403-1.284-.906-1.777-.504-.494-1.309-.395-1.913-.198-.402.198-1.208.79-.704 1.284.402.592.503.888.704 1.48zm10.066 2.962c.806 0 3.121-1.283 1.208-1.283-.906 0-3.12 1.283-1.208 1.283zm92.511-1.58c.302.1.705 0 1.107-.098.302-.099.705-.197.906-.494.403-.395.705-.69 1.007-1.184.101-.198.201-.395 0-.593-.201-.197-.503-.197-.805-.296-.403 0-.806.1-1.108.198a1.561 1.561 0 0 0-.805.592c-.101.197-.201.395-.403.494l-.201.197c-.201.197-.302.395-.302.592.101.395.302.494.604.593zm13.388 5.33c.604-.098 1.409-.197 1.913-.69 1.308-1.086 2.617-2.172 3.624-3.554.302-.395-1.007-.197-1.108-.197-.503.098-1.308.296-1.711.69-.906 1.284-2.215 2.271-3.423 3.357-.503.395.403.395.705.395zm10.872 26.753h-4.933c-.604 0-1.51.493-1.61 1.085-.101.691.805.889 1.308.889h4.933c.604 0 1.51-.494 1.61-1.086.101-.691-.704-.888-1.308-.888zM57.387 60.128c-.503.099-1.409.296-1.61.79-.504 1.283-1.007 2.566-1.41 3.85-.2.69 2.618.296 2.82-.494.402-1.283.804-2.566 1.408-3.85.202-.493-1.006-.296-1.208-.296zm4.631 2.567c-.302 0-.705.099-1.007.197-.302.099-.704.198-1.006.395-.1.099-.302.198-.302.395v.296c0 .099-.1.198-.1.296-.102.099-.102.198 0 .296.2.1.502.1.704.1.402 0 .704-.1 1.107-.297.201-.099.604-.197.805-.395.101-.197.202-.296.302-.493v-.494c0-.296-.402-.296-.503-.296zm55.466 3.652c-.403-.691-3.02.296-2.819.79.805 1.58 1.913 3.06 2.919 4.64.403.69 3.02-.396 2.819-.79-1.007-1.58-2.114-3.06-2.919-4.64zm4.026-2.369c-.302-.592-1.107-.592-1.61-.395-.403.099-1.51.593-1.208 1.185.402.79.805 1.58 1.208 2.27.302.593 1.107.593 1.61.395.403-.099 1.51-.592 1.208-1.184-.402-.691-.805-1.481-1.208-2.27zM5.746 42.656c-1.51.395-3.02.592-4.53.987-.503.099-1.308.592-1.207 1.283.2.691 1.107.691 1.71.593 1.51-.395 3.02-.593 4.53-.988.504-.098 1.31-.69 1.209-1.283-.302-.69-1.208-.69-1.712-.592z"/>
  <path id="blot-t" d="M134.282 58.092c4.704.955.855-38.096.107-40.643-2.138-7.004-28.546-2.228-34.427-1.804-13.578 1.061-26.942-1.06-40.2-.424-6.628.318-37.312-1.91-40.092 2.122-5.346 7.64-2.887 27.378-1.39 37.247-4.277.849 2.459 4.457 3.314 5.2 6.736 2.334 17.534-.213 24.59.424 16.465 1.592 34-2.335 50.571-1.061 4.811 1.167 10.264 1.06 15.182 1.273 3.742 5.943 21.062-2.547 22.345-2.334.535.106-.107 0 0 0z"/>
  <path id="blot-m" d="M121.521 57.917c-1.921-.72-3.962-.72-5.883-.96-1.921-.24-3.842-.481-5.883-.721-1.921.12-3.962 0-6.004.12l-5.883.36c-7.804.36-15.608.36-23.412.12-7.805-.12-15.609-.6-23.533-.6-3.962 0-7.924.12-11.887.36-1.92.36-3.842.6-5.883 1.08-1.92.48-3.722 1.081-5.763 1.201 1.921.48 3.962.36 6.003.36 1.921 0 3.843.12 5.884.24 3.842-.24 7.804-.24 11.646-.36 7.804 0 15.608.36 23.533.6 7.804.12 15.728.24 23.652-.12l5.884-.36c1.921-.12 3.842-.12 5.763-.12 1.921-.12 3.962-.36 5.883-.6 2.041-.24 3.842-.72 5.883-.6h.12v-.72c0 .48 0 .6-.12.72z"/>
  <path id="logo" d="M44.192 39.752c-.102-2.717-.508-5.334-.508-8.05 0-2.215.406-4.429-.405-6.542 0-.201.101-.503.101-.705.203-1.006-3.348-.503-3.855.504-.304.302-.507.603-.406 1.006 0 .1.102.201.102.302-.71 3.22-1.624 6.34-2.638 9.46-.406 1.207-.913 2.315-1.32 3.522-.608-1.107-1.217-2.214-1.622-3.422-1.42-3.421-2.638-6.943-4.363-10.265.203-1.51-3.246-1.409-3.957 0-.811 1.711-.71 3.422-.405 5.234.304 2.012.405 4.025.405 6.138 0 4.026.406 7.95.406 11.976-.406.403-.507.906-.101 1.41.203.2.405.402.608.502 1.015.705 3.653.101 3.653-1.308 0-4.126-.305-8.252-.406-12.479v-1.208c.101.101.101.302.203.403.609 1.61 1.319 3.22 2.232 4.73.913 1.51 1.319 3.12 1.826 4.73-.203.201-.304.503-.203.704 0 .202.102.302.304.403.61.503 1.827.302 2.537 0 .304-.1.608-.302.811-.403.305-.2.913-.704.71-1.207 0-.1-.1-.202-.1-.302.506-1.308.71-2.617 1.014-3.925.304-1.409.811-2.818 1.319-4.126.101.604.101 1.207.203 1.912.202 2.616 0 5.132 0 7.648 0 .805.101 1.61.202 2.516.102.302.406 1.812.305 1.912-.812.504-.609 1.107.203 1.309.913.201 2.13-.101 2.84-.705 1.218-1.107.61-2.818.406-4.227-.507-2.415 0-5.031-.101-7.447zm8.522.705c-.102-2.013-.812-3.925-.812-5.938 0-2.314.203-4.63-.203-6.944-.101-.704-4.16.1-3.956 1.007.304 2.113.203 4.226.203 6.44 0 2.013.507 3.925.71 5.938.304 2.113-.102 4.227.101 6.24.102 1.006.812 2.717.102 3.622-.406.504 1.521.302 1.623.302.812-.1 1.826-.402 2.333-1.006.71-.805.203-2.415.102-3.422-.305-2.012-.102-4.227-.203-6.24zm16.537-3.321c-2.13-2.818-5.986-.805-8.725-1.51-1.42-.402-1.42-2.314-1.42-3.421 0-1.41-.102-2.717-.305-4.126-.101-1.107 0-2.114.71-2.919.102-.1.913-.302.812-.302.406-.1.71-.1 1.116-.1 1.522-.101 4.667.2 4.058 2.516-.304 1.006 3.652.402 3.957-.604 1.217-4.63-7.406-3.724-9.841-3.12-2.232.604-4.667 1.811-4.87 4.428-.102 1.208.304 2.415.304 3.623.102 1.409-.203 2.818.305 4.126 1.116 3.02 5.58 1.61 7.913 1.71 3.855.303 2.74 5.536 2.74 7.951 0 1.309 1.217 3.422.202 4.529-.608.704-2.029.704-2.84.805-.812.1-2.232.302-2.74-.503-1.014-1.41.102-3.824-.101-5.434-.102-.906-4.16-.101-3.957 1.006.304 2.616-1.42 6.139 2.435 6.642 2.435.302 5.276-.201 7.61-.906 1.216-.402 2.332-.906 3.246-1.811 1.014-.906.71-2.315.405-3.523-.507-3.12.913-6.541-1.014-9.057zm17.653-.202c-.102-3.824-.71-7.548-.71-11.372 0-2.013-4.059-1.308-4.059.302 0 3.623.508 7.246.71 10.869v.201c-1.927 0-3.956.201-5.985.201.203-4.629-.609-9.258-.406-13.988 0-.604-3.957-.1-3.957 1.006-.203 4.529.61 8.957.508 13.486-.102 2.113-.203 4.327-.305 6.44 0 1.107.203 2.214.305 3.321.101 1.007.507 2.315.203 3.322-.203.805 3.652.301 3.956-.705.507-1.812-.203-4.026-.406-5.837-.203-1.71 0-3.522.102-5.233 2.029-.1 4.16-.302 6.189 0 .101 1.409.202 2.818.304 4.126.101 1.208.203 2.315.203 3.522 0 1.007.101 2.516-.203 3.523-.812 2.113 3.145 1.912 3.754.402.71-1.912.507-4.227.406-6.24-.203-2.515-.61-4.93-.61-7.346zm17.146 4.428c-.914-2.817-2.435-5.233-3.653-7.85a107.599 107.599 0 0 0 2.942-5.937c.812-1.811 1.421-3.824 3.145-5.132.609-.403.609-.906-.304-1.007-.913-.1-2.13.202-2.841.705-1.42 1.308-2.435 2.717-3.145 4.428-.913 2.113-1.927 4.126-2.942 6.139-.101.1-.101.302-.203.402-.507.302-.811.805-.609 1.309a67.62 67.62 0 0 1-2.536 4.629c-.304-5.535-1.014-11.17-1.217-16.706 0-1.308-4.058-.503-3.957 1.006.203 6.944 1.218 13.788 1.319 20.732v.1c-.304.302-.203.504.101.604 0 1.812-.101 3.523-.203 5.334-.507.704.508 1.107 1.117 1.107h.1c.711 0 2.639-.302 2.74-1.409.203-2.113.305-4.227.203-6.34 1.623-1.711 2.942-3.623 4.16-5.636.811 1.51 1.522 3.02 2.029 4.63.913 2.717 2.333 5.333 3.145 8.05.507 1.812 4.565.705 3.957-1.006-1.015-2.818-2.435-5.334-3.348-8.152zm23.841-4.629c-.203-.805-1.42-.805-2.333-.805v-1.006c-.102-2.717-.203-5.435-.406-8.051-.203-2.516-1.623-3.321-4.058-3.22-2.435.1-5.276.503-7.609 1.408-2.638 1.007-4.16 2.919-4.667 5.737-.507 3.019.203 6.24.406 9.258.203 3.523.101 7.045.101 10.567 0 .604 3.957 0 3.957-1.006v-8.353c0-.805-.102-1.61-.102-2.416 1.421-.603 3.754 0 5.174.101 1.116.1 2.232-.201 3.247-.302 0 2.315.101 4.63.203 6.944 0 1.208.507 3.523-.406 4.529-.406.503 1.522.302 1.623.302.812-.1 1.827-.403 2.334-1.007.913-1.107.507-3.824.406-5.132-.102-1.912-.102-3.824-.102-5.736 1.116-.202 2.435-.906 2.232-1.812zm-14.812-.1c-.102-1.208-.203-2.516-.304-3.724-.203-2.315.101-5.636 2.333-7.045.609-.402 1.725-.302 2.435-.402 1.014-.201 2.029-.403 2.841.201 1.217.805.913 3.724.913 4.931 0 2.013.203 4.026.304 6.038-.609.101-1.116.101-1.725.101-2.333-.201-4.667-.604-6.797-.1zM49.264 24.858c.508-.1 1.015-.201 1.522-.503l.203-.201c.507-.302 1.015-.806.71-1.41-.507-1.106-.405-2.213-.405-3.421 0-1.006-1.015-1.208-1.827-1.208-.71.1-2.232.604-2.232 1.51 0 1.006-.101 2.013.102 3.019 0 .1-.102.201-.102.403-.101.2 0 .402.102.603v.403c.101.201.203.402.406.503.608.302 1.116.302 1.521.302z"/>
</defs>
</svg>
