<svg width="23" height="28" viewBox="0 0 23 28" fill="none" xmlns="http://www.w3.org/2000/svg">
<path d="M22.9571 8.24243C22.7628 7.83839 22.0826 7.93939 21.5968 7.83838H20.5279C20.6251 7.43434 20.8194 7.23232 21.0138 6.82828C21.1109 6.42424 21.3053 6.12121 21.2081 5.51515C21.3053 5.31313 21.4024 5.11111 21.4996 4.90909C21.5968 4.80808 21.694 4.40404 21.5968 4.20202C21.4996 4 21.3053 4 21.0138 4C20.9166 4 20.8194 4.10101 20.8194 4.10101C20.4308 4.50505 20.0421 5.11111 19.5562 5.51515H19.4591C19.3619 5.51515 19.4591 5.51515 19.3619 5.61616C19.2647 5.71717 19.0704 5.81818 18.9732 5.81818C18.6817 6.0202 18.4874 6.22222 18.0987 6.32323C17.6129 6.12121 16.9327 6.0202 16.2525 5.91919C15.0865 6.0202 14.0176 6.12121 13.3374 6.62626C12.4629 6.92929 11.8799 7.63636 11.2969 8.24243C11.2969 8.54546 11.0054 8.64646 10.9082 8.94949C10.9082 8.94949 10.9082 9.05051 10.811 9.05051C10.811 9.25253 10.7139 9.35354 10.7139 9.55556C10.7139 9.65657 10.9082 9.9596 10.7139 10.0606C9.93651 9.9596 9.25633 9.45455 8.67331 9.05051C7.99313 8.64647 7.21578 8.44444 6.63277 7.93939C5.95259 7.63636 5.36957 7.13131 4.88372 6.62626C4.68939 6.32323 4.39788 6.12121 4.20354 5.71717C3.81487 5.51515 4.00921 4.80808 3.52336 4.80808C3.23185 4.80808 3.23185 5.0101 3.13468 5.21212C3.03751 5.41414 2.74601 5.41414 2.74601 5.71717C2.74601 5.71717 2.74601 5.81818 2.64884 5.81818C2.4545 6.92929 2.16299 7.83838 2.16299 9.15151C2.26016 9.55555 2.4545 9.85858 2.74601 10.1616C2.35733 10.2626 2.06583 10.3636 1.87149 10.6667C1.77432 11.7778 2.26016 12.2828 2.55167 12.9899C2.64884 13.3939 2.94035 13.697 3.13468 14C3.13468 14.202 3.32902 14.303 3.42619 14.404C3.42619 14.5051 3.52336 14.505 3.52336 14.6061C3.52336 14.7071 3.81487 14.8081 3.62053 14.8081C3.23185 14.9091 2.64884 14.9091 2.35733 15.2121C2.26016 15.5152 2.26016 16.0202 2.35733 16.3232C2.35733 16.5253 2.64884 16.6263 2.64884 16.8283C3.13468 17.2323 3.7177 17.5354 4.20354 17.9394C4.78656 18.1414 5.36957 18.2424 6.04975 18.3434C5.95258 18.6465 5.75825 18.9495 5.46674 19.0505C4.68939 19.4545 3.7177 19.5556 2.84318 19.7576C2.26016 19.7576 1.87149 19.9596 1.28848 19.9596C0.996969 20.0606 0.413953 20.0606 0.219615 20.1616C0.122446 20.2626 0.122445 20.2626 0.0252764 20.3636C-0.0718926 20.7677 0.122447 21.0707 0.413954 21.2727C0.413954 21.5758 0.608293 21.5758 0.802631 21.6768C0.8998 21.8788 1.09414 21.9798 1.1913 22.0808C1.67715 22.5859 2.4545 22.8889 3.03752 23.1919C3.81487 23.3939 4.59222 23.596 5.46674 23.697C6.34126 23.798 7.31295 23.798 8.18747 23.899H9.15916C9.645 24 10.3252 24 11.0054 24C11.1025 23.899 11.2969 23.899 11.4912 23.899C11.9771 23.596 12.6572 23.4949 13.0459 23.1919C13.6289 22.9899 14.0176 22.5859 14.6006 22.2828C15.4751 21.4748 16.4468 20.9697 17.0298 19.8586C17.2242 19.6566 17.4185 19.4545 17.4185 19.1515C17.71 18.9495 17.8072 18.6465 18.0015 18.4444C18.3902 18.0404 18.6817 17.5354 18.9732 17.0303C19.2647 16.5253 19.5562 15.9192 19.8477 15.4141C19.8477 15.0101 20.1393 14.9091 20.1393 14.505C20.3336 14.303 20.3336 13.798 20.5279 13.596C20.5279 13.2929 20.5279 13.1919 20.6251 12.9899C20.6251 11.6768 20.6251 10.5657 20.3336 9.55556C20.9166 9.35354 21.4996 9.25252 21.8883 8.94949C22.6656 9.25252 23.1515 8.84849 22.9571 8.24243ZM19.6534 12.2828C19.4591 13.1919 19.0704 13.697 18.6817 14.303C18.7789 14.7071 18.5845 14.8081 18.5845 15.2121C18.3902 15.5152 18.293 15.9192 18.1959 16.2222C18.0015 16.5253 17.9044 16.8283 17.71 17.1313C17.3214 17.6364 16.9327 18.2424 16.544 18.7475C16.1553 19.3535 15.6695 19.7576 15.2808 20.2626C14.8921 20.7677 14.4063 21.1717 13.9204 21.5758C13.4346 21.7778 13.0459 21.9798 12.6572 22.2828C12.4629 22.3838 12.1714 22.4848 11.9771 22.5859C11.7827 22.6869 11.4912 22.6869 11.2969 22.8889C10.228 22.9899 9.06199 23.0909 7.79879 22.9899C6.8271 22.8889 5.75824 22.7879 4.88372 22.5859C4.0092 22.3838 3.42619 21.8788 2.64884 21.5758C2.84318 21.3737 3.23185 21.3737 3.62053 21.3737C3.62053 21.1717 4.00921 21.3737 4.00921 21.2727C4.30071 21.3737 4.30071 21.1717 4.49505 21.1717C5.07806 20.9697 5.66108 20.8687 6.14692 20.5657C6.43843 20.4646 6.5356 20.1616 6.8271 19.9596C6.8271 19.7576 6.92427 19.6566 7.02144 19.5556C7.02144 19.2525 7.21578 19.1515 7.11861 18.7475C7.21578 18.5455 7.41012 18.4444 7.41012 18.0404C7.31295 17.9394 7.31295 17.7374 7.11861 17.6364C7.11861 17.4343 6.72994 17.5354 6.72994 17.4343C6.43843 17.4343 6.34126 17.4343 6.14692 17.3333C5.95259 17.3333 5.66108 17.4343 5.66108 17.2323C4.88373 17.2323 4.39788 16.8283 3.81487 16.5253C4.20354 16.2222 4.78656 16.1212 5.07806 15.8182C5.56391 15.7172 6.14692 15.7172 6.14692 15.1111C6.14692 14.404 5.36957 14.404 4.88372 14.303C4.10637 13.596 3.7177 12.5859 3.13468 11.7778C3.32902 11.5758 3.7177 11.5758 3.81487 11.3737C4.30071 11.4747 4.30071 11.0707 4.49505 10.8687C4.49505 10.3636 4.20354 10.2626 3.91203 10.0606C3.62053 9.85859 3.42619 9.55556 3.23185 9.35354C3.23185 8.54545 3.23185 7.63636 3.32902 6.92929C3.42619 6.92929 3.42619 6.92929 3.42619 7.0303C3.62053 7.43434 4.00921 7.83839 4.20354 8.24243C4.68939 8.64647 5.07806 9.15151 5.75825 9.35354C6.24409 9.75758 6.8271 9.9596 7.31295 10.3636C7.89596 10.6667 8.47898 10.9697 8.96482 11.2727C9.645 11.4747 10.0337 11.9798 10.9082 11.8788C11.1025 11.7778 11.2969 11.6768 11.4912 11.5758C11.7827 11.0707 11.394 10.4646 11.5884 9.95959C11.8799 9.25252 12.3657 8.94949 12.8516 8.44444C13.1431 8.24242 13.4346 8.14141 13.6289 7.93939C13.9204 7.83838 14.3091 7.73737 14.6006 7.53535C14.9893 7.53535 15.2808 7.43434 15.5723 7.43434H16.8355C17.0298 7.53535 17.3214 7.53535 17.5157 7.53535C17.71 7.63636 17.9044 7.83838 18.1959 7.93939C18.9732 8.64646 19.4591 9.65656 19.5562 10.9697C19.5562 11.2727 19.6534 11.6768 19.6534 12.2828ZM19.9449 6.62626C19.8477 6.92929 19.7506 7.33333 19.3619 7.43434C19.3619 7.33333 19.2647 7.33333 19.2647 7.23232C19.2647 7.0303 19.4591 7.0303 19.5562 6.92929C19.6534 6.82828 19.7506 6.62626 19.9449 6.62626C20.0421 6.62626 19.9449 6.52525 19.9449 6.62626ZM14.6006 9.65656C14.795 9.75757 14.8921 9.9596 15.0865 10.0606C15.1836 10.2626 15.378 10.3636 15.6695 10.4646C15.6695 10.2626 15.961 10.4646 16.0582 10.2626C16.2525 10.2626 16.2525 10.0606 16.3497 9.95959C16.3497 9.45454 16.2525 8.94949 15.961 8.64646C15.2808 8.14141 14.3091 8.64646 14.6006 9.65656Z" fill="#231F20"/>
</svg>
