<svg width="23" height="28" viewBox="0 0 23 28" fill="none" xmlns="http://www.w3.org/2000/svg">
<path d="M22.9571 8.74243C22.7628 8.33838 22.0826 8.43939 21.5968 8.33838H20.5279C20.6251 7.93434 20.8194 7.73232 21.0138 7.32828C21.1109 6.92424 21.3053 6.62121 21.2081 6.01515C21.3053 5.81313 21.4024 5.61111 21.4996 5.40909C21.5968 5.30808 21.694 4.90404 21.5968 4.70202C21.4996 4.5 21.3053 4.5 21.0138 4.5C20.9166 4.5 20.8194 4.60101 20.8194 4.60101C20.4308 5.00505 20.0421 5.61111 19.5562 6.01515H19.4591C19.3619 6.01515 19.4591 6.01515 19.3619 6.11616C19.2647 6.21717 19.0704 6.31818 18.9732 6.31818C18.6817 6.5202 18.4874 6.72222 18.0987 6.82323C17.6129 6.62121 16.9327 6.5202 16.2525 6.41919C15.0865 6.5202 14.0176 6.62121 13.3374 7.12626C12.4629 7.42929 11.8799 8.13636 11.2969 8.74243C11.2969 9.04546 11.0054 9.14646 10.9082 9.44949C10.9082 9.44949 10.9082 9.55051 10.811 9.55051C10.811 9.75253 10.7139 9.85354 10.7139 10.0556C10.7139 10.1566 10.9082 10.4596 10.7139 10.5606C9.93651 10.4596 9.25633 9.95455 8.67331 9.55051C7.99313 9.14646 7.21578 8.94444 6.63277 8.43939C5.95259 8.13636 5.36957 7.63131 4.88372 7.12626C4.68939 6.82323 4.39788 6.62121 4.20354 6.21717C3.81487 6.01515 4.00921 5.30808 3.52336 5.30808C3.23185 5.30808 3.23185 5.5101 3.13468 5.71212C3.03751 5.91414 2.74601 5.91414 2.74601 6.21717C2.74601 6.21717 2.74601 6.31818 2.64884 6.31818C2.4545 7.42929 2.16299 8.33838 2.16299 9.65151C2.26016 10.0556 2.4545 10.3586 2.74601 10.6616C2.35733 10.7626 2.06583 10.8636 1.87149 11.1667C1.77432 12.2778 2.26016 12.7828 2.55167 13.4899C2.64884 13.8939 2.94035 14.197 3.13468 14.5C3.13468 14.702 3.32902 14.803 3.42619 14.904C3.42619 15.0051 3.52336 15.005 3.52336 15.1061C3.52336 15.2071 3.81487 15.3081 3.62053 15.3081C3.23185 15.4091 2.64884 15.4091 2.35733 15.7121C2.26016 16.0152 2.26016 16.5202 2.35733 16.8232C2.35733 17.0253 2.64884 17.1263 2.64884 17.3283C3.13468 17.7323 3.7177 18.0354 4.20354 18.4394C4.78656 18.6414 5.36957 18.7424 6.04975 18.8434C5.95258 19.1465 5.75825 19.4495 5.46674 19.5505C4.68939 19.9545 3.7177 20.0556 2.84318 20.2576C2.26016 20.2576 1.87149 20.4596 1.28848 20.4596C0.996969 20.5606 0.413953 20.5606 0.219615 20.6616C0.122446 20.7626 0.122445 20.7626 0.0252764 20.8636C-0.0718926 21.2677 0.122447 21.5707 0.413954 21.7727C0.413954 22.0758 0.608293 22.0758 0.802631 22.1768C0.8998 22.3788 1.09414 22.4798 1.1913 22.5808C1.67715 23.0859 2.4545 23.3889 3.03752 23.6919C3.81487 23.8939 4.59222 24.096 5.46674 24.197C6.34126 24.298 7.31295 24.298 8.18747 24.399H9.15916C9.645 24.5 10.3252 24.5 11.0054 24.5C11.1025 24.399 11.2969 24.399 11.4912 24.399C11.9771 24.096 12.6572 23.9949 13.0459 23.6919C13.6289 23.4899 14.0176 23.0859 14.6006 22.7828C15.4751 21.9748 16.4468 21.4697 17.0298 20.3586C17.2242 20.1566 17.4185 19.9545 17.4185 19.6515C17.71 19.4495 17.8072 19.1465 18.0015 18.9444C18.3902 18.5404 18.6817 18.0354 18.9732 17.5303C19.2647 17.0253 19.5562 16.4192 19.8477 15.9141C19.8477 15.5101 20.1393 15.4091 20.1393 15.005C20.3336 14.803 20.3336 14.298 20.5279 14.096C20.5279 13.7929 20.5279 13.6919 20.6251 13.4899C20.6251 12.1768 20.6251 11.0657 20.3336 10.0556C20.9166 9.85354 21.4996 9.75252 21.8883 9.44949C22.6656 9.75252 23.1515 9.34849 22.9571 8.74243ZM19.6534 12.7828C19.4591 13.6919 19.0704 14.197 18.6817 14.803C18.7789 15.2071 18.5845 15.3081 18.5845 15.7121C18.3902 16.0152 18.293 16.4192 18.1959 16.7222C18.0015 17.0253 17.9044 17.3283 17.71 17.6313C17.3214 18.1364 16.9327 18.7424 16.544 19.2475C16.1553 19.8535 15.6695 20.2576 15.2808 20.7626C14.8921 21.2677 14.4063 21.6717 13.9204 22.0758C13.4346 22.2778 13.0459 22.4798 12.6572 22.7828C12.4629 22.8838 12.1714 22.9848 11.9771 23.0859C11.7827 23.1869 11.4912 23.1869 11.2969 23.3889C10.228 23.4899 9.06199 23.5909 7.79879 23.4899C6.8271 23.3889 5.75824 23.2879 4.88372 23.0859C4.0092 22.8838 3.42619 22.3788 2.64884 22.0758C2.84318 21.8737 3.23185 21.8737 3.62053 21.8737C3.62053 21.6717 4.00921 21.8737 4.00921 21.7727C4.30071 21.8737 4.30071 21.6717 4.49505 21.6717C5.07806 21.4697 5.66108 21.3687 6.14692 21.0657C6.43843 20.9646 6.5356 20.6616 6.8271 20.4596C6.8271 20.2576 6.92427 20.1566 7.02144 20.0556C7.02144 19.7525 7.21578 19.6515 7.11861 19.2475C7.21578 19.0455 7.41012 18.9444 7.41012 18.5404C7.31295 18.4394 7.31295 18.2374 7.11861 18.1364C7.11861 17.9343 6.72994 18.0354 6.72994 17.9343C6.43843 17.9343 6.34126 17.9343 6.14692 17.8333C5.95259 17.8333 5.66108 17.9343 5.66108 17.7323C4.88373 17.7323 4.39788 17.3283 3.81487 17.0253C4.20354 16.7222 4.78656 16.6212 5.07806 16.3182C5.56391 16.2172 6.14692 16.2172 6.14692 15.6111C6.14692 14.904 5.36957 14.904 4.88372 14.803C4.10637 14.096 3.7177 13.0859 3.13468 12.2778C3.32902 12.0758 3.7177 12.0758 3.81487 11.8737C4.30071 11.9747 4.30071 11.5707 4.49505 11.3687C4.49505 10.8636 4.20354 10.7626 3.91203 10.5606C3.62053 10.3586 3.42619 10.0556 3.23185 9.85353C3.23185 9.04545 3.23185 8.13636 3.32902 7.42929C3.42619 7.42929 3.42619 7.42929 3.42619 7.5303C3.62053 7.93434 4.00921 8.33838 4.20354 8.74243C4.68939 9.14647 5.07806 9.65151 5.75825 9.85353C6.24409 10.2576 6.8271 10.4596 7.31295 10.8636C7.89596 11.1667 8.47898 11.4697 8.96482 11.7727C9.645 11.9747 10.0337 12.4798 10.9082 12.3788C11.1025 12.2778 11.2969 12.1768 11.4912 12.0758C11.7827 11.5707 11.394 10.9646 11.5884 10.4596C11.8799 9.75252 12.3657 9.44949 12.8516 8.94444C13.1431 8.74242 13.4346 8.64141 13.6289 8.43939C13.9204 8.33838 14.3091 8.23737 14.6006 8.03535C14.9893 8.03535 15.2808 7.93434 15.5723 7.93434H16.8355C17.0298 8.03535 17.3213 8.03535 17.5157 8.03535C17.71 8.13636 17.9044 8.33838 18.1959 8.43939C18.9732 9.14646 19.4591 10.1566 19.5562 11.4697C19.5562 11.7727 19.6534 12.1768 19.6534 12.7828ZM19.9449 7.12626C19.8477 7.42929 19.7506 7.83333 19.3619 7.93434C19.3619 7.83333 19.2647 7.83333 19.2647 7.73232C19.2647 7.5303 19.4591 7.5303 19.5562 7.42929C19.6534 7.32828 19.7506 7.12626 19.9449 7.12626C20.0421 7.12626 19.9449 7.02525 19.9449 7.12626ZM14.6006 10.1566C14.795 10.2576 14.8921 10.4596 15.0865 10.5606C15.1836 10.7626 15.378 10.8636 15.6695 10.9646C15.6695 10.7626 15.961 10.9646 16.0582 10.7626C16.2525 10.7626 16.2525 10.5606 16.3497 10.4596C16.3497 9.95454 16.2525 9.44949 15.961 9.14646C15.2808 8.64141 14.3091 9.14646 14.6006 10.1566Z" fill="#231F20"/>
</svg>
