<svg xmlns="http://www.w3.org/2000/svg">
  <symbol viewBox="0 0 40 38" id="icon-1">
    <path d="M23.5 38C32.575 38 40 30.6452 40 21.6559C30.925 21.6559 23.5 28.9086 23.5 38ZM11.7438 16.6505C11.7438 19.2043 13.8062 21.1452 16.2812 21.1452C17.2094 21.1452 18.1375 20.8387 18.8594 20.328V20.6344C18.8594 23.1882 20.9219 25.129 23.3969 25.129C25.975 25.129 27.9344 23.086 27.9344 20.6344V20.328C28.6562 20.8387 29.5844 21.1452 30.5125 21.1452C33.0906 21.1452 35.05 19.1021 35.05 16.6505C35.05 14.8118 34.0188 13.2796 32.4719 12.5645C34.0188 11.8495 35.05 10.3172 35.05 8.47849C35.05 5.92473 32.9875 3.98387 30.5125 3.98387C29.5844 3.98387 28.6562 4.29032 27.9344 4.80107V4.49462C27.9344 1.94086 25.8719 0 23.3969 0C20.8187 0 18.8594 2.04301 18.8594 4.49462V4.80107C18.1375 4.29032 17.2094 3.98387 16.2812 3.98387C13.7031 3.98387 11.7438 6.02688 11.7438 8.47849C11.7438 10.3172 12.775 11.8495 14.3219 12.5645C12.8781 13.2796 11.7438 14.8118 11.7438 16.6505ZM23.5 7.96774C26.0781 7.96774 28.0375 10.0108 28.0375 12.4624C28.0375 15.0161 25.975 16.957 23.5 16.957C20.9219 16.957 18.9625 14.914 18.9625 12.4624C18.9625 10.0108 20.9219 7.96774 23.5 7.96774ZM7 21.6559C7 30.6452 14.425 38 23.5 38C23.5 28.9086 16.075 21.6559 7 21.6559Z" fill="#63D1BB"/>
  </symbol>
  <symbol viewBox="0 0 35 34" id="icon-2">
    <path d="M0.305558 13.9528C-0.101853 16.0303 -0.101853 18.1079 0.305558 20.1854L4.48152 17.0196L0.305558 13.9528Z" fill="#63D1BB"/>
    <path d="M24.852 1.586C19.9631 -0.590493 14.2593 -0.590493 9.26855 1.98172L16.9075 7.52187L24.852 1.586Z" fill="#63D1BB"/>
    <path d="M34.528 13.062L29.6391 16.7225L34.6299 20.3829C35.1391 18.0086 35.1391 15.4364 34.528 13.062Z" fill="#63D1BB"/>
    <path d="M9.37048 32.057C14.2594 34.5303 20.2687 34.7281 25.3614 32.1559L17.1113 26.1211L9.37048 32.057Z" fill="#63D1BB"/>
    <path d="M8.04638 14.2488L1.73151 9.698C1.42595 10.3905 1.12039 11.083 0.916687 11.7756L6.31488 15.7328L8.04638 14.2488Z" fill="#63D1BB"/>
    <path d="M18.9446 24.8349L27.3984 30.9686C27.7039 30.7707 28.0095 30.5729 28.2132 30.375C28.5187 30.1772 28.8243 29.8804 29.1298 29.5836L20.6761 23.4498L18.9446 24.8349Z" fill="#63D1BB"/>
    <path d="M11.6112 11.5781L4.07415 6.13684C3.56488 6.6315 3.15747 7.22509 2.75006 7.81867L9.7779 12.9631L11.6112 11.5781Z" fill="#63D1BB"/>
    <path d="M22.5094 22.1635L30.7595 28.1983C31.2687 27.7036 31.6761 27.11 32.0836 26.5165L24.2409 20.7784L22.5094 22.1635Z" fill="#63D1BB"/>
    <path d="M15.176 8.90696L7.33336 3.16895C7.12966 3.26788 6.92595 3.46574 6.72225 3.56467C6.31484 3.86146 5.90743 4.15826 5.60187 4.55398L13.4445 10.1931L15.176 8.90696Z" fill="#63D1BB"/>
    <path d="M26.0743 19.3936L33.204 24.538C33.5095 23.8455 33.8151 23.2519 34.1206 22.5594L27.9076 18.0085L26.0743 19.3936Z" fill="#63D1BB"/>
    <path d="M26.8891 2.67419L0.916687 22.3615C1.12039 23.054 1.42595 23.7466 1.73151 24.4391L28.7225 3.9603C28.2132 3.46564 27.6021 3.06992 26.8891 2.67419Z" fill="#63D1BB"/>
    <path d="M31.2688 6.53234C30.9632 6.13661 30.6577 5.74089 30.3521 5.44409L2.85187 26.2197C3.05557 26.7143 3.36113 27.11 3.66669 27.4068C3.76854 27.6047 3.97225 27.8026 4.0741 27.9015L31.778 7.12592C31.5743 6.92806 31.4725 6.7302 31.2688 6.53234Z" fill="#63D1BB"/>
    <path d="M32.8984 8.90674L5.70374 29.4844C6.213 29.9791 6.82412 30.4738 7.43523 30.8695L33.9169 10.8854C33.6114 10.1928 33.3058 9.50033 32.8984 8.90674Z" fill="#63D1BB"/>
  </symbol>
  <symbol viewBox="0 0 47 27" id="icon-3">
    <path d="M43.0665 0H3.93347C1.71459 0 0 1.68132 0 3.85714V23.1429C0 25.3187 1.71459 27 3.93347 27H43.0665C45.2854 27 47 25.3187 47 23.1429V3.85714C47 1.78022 45.1845 0 43.0665 0ZM3.02575 24.7253V2.76923H43.5708V24.7253H3.02575Z" fill="#63D1BB"/>
    <path d="M6.95926 20.8683H39.6374V6.62659H6.95926V20.8683ZM23.5 8.50571C26.4249 8.50571 28.8455 10.8793 28.8455 13.7475C28.8455 16.6156 26.4249 18.9892 23.5 18.9892C20.5751 18.9892 18.1545 16.6156 18.1545 13.7475C18.1545 10.7804 20.5751 8.50571 23.5 8.50571Z" fill="#63D1BB"/>
  </symbol>
</svg>
