<svg viewBox="0 0 35 34" xmlns="http://www.w3.org/2000/svg"><path fill-rule="evenodd" clip-rule="evenodd" d="M24.852 1.586C19.963-.59 14.259-.59 9.269 1.982l7.638 5.54 7.945-5.936zM.306 13.953a16.044 16.044 0 0 0 0 6.232l4.176-3.165-4.176-3.067zm29.333 2.77 4.889-3.661c.611 2.374.611 4.947.102 7.32l-4.99-3.66zM9.37 32.056c4.89 2.473 10.899 2.671 15.991.099l-8.25-6.035-7.74 5.936zM1.732 9.698l6.314 4.55-1.731 1.485-5.398-3.957c.203-.693.509-1.386.815-2.078zm17.213 15.137 8.453 6.134c.306-.198.611-.396.815-.594.306-.198.611-.495.917-.791l-8.454-6.134-1.731 1.385zM4.075 6.137l7.536 5.441-1.833 1.385L2.75 7.82c.407-.594.815-1.188 1.324-1.682zm18.434 16.026 8.25 6.035c.51-.494.917-1.088 1.325-1.681l-7.843-5.739-1.732 1.386zM7.333 3.17l7.843 5.738-1.732 1.286-7.842-5.639c.305-.396.713-.693 1.12-.99a2.13 2.13 0 0 0 .306-.197 2.13 2.13 0 0 1 .305-.198zm18.741 16.225 7.13 5.144c.153-.346.306-.668.458-.99.153-.32.306-.642.459-.989l-6.213-4.55-1.834 1.385zM.917 22.362 26.889 2.674c.713.396 1.324.792 1.834 1.286L1.732 24.44c-.306-.693-.612-1.386-.815-2.079zm30.352-15.83c-.306-.395-.611-.791-.917-1.088L2.852 26.22c.204.494.51.89.815 1.187.102.198.305.396.407.494L31.778 7.127a2.645 2.645 0 0 1-.255-.297 2.645 2.645 0 0 0-.254-.297zM5.704 29.484 32.898 8.907c.408.593.713 1.286 1.019 1.978L7.435 30.87a11.655 11.655 0 0 1-1.731-1.385z"/></svg>
