<svg viewBox="0 0 25 24" xmlns="http://www.w3.org/2000/svg"><path fill-rule="evenodd" clip-rule="evenodd" d="M23.488 12.148c0-5.926-4.94-10.667-10.887-10.667V0C19.456 0 25 5.432 25 12.148h-1.512zM16.33 24h1.108c1.21-.395 3.327-1.778 3.63-3.062.1-.592-.202-1.58-.605-2.172-.3-.442-1.105-.719-1.787-.954-.233-.08-.453-.156-.633-.232-.403-.197-.806-.395-1.31-.493a13.557 13.557 0 0 1-.314-.083c-.364-.099-.79-.214-1.097-.214-.807 0-1.434.615-2.002 1.17-.283.279-.552.542-.821.707-3.427-1.778-5.948-4.544-7.56-8.198.172-.38.566-.688.975-1.008.55-.43 1.127-.881 1.242-1.56.075-.585-.127-1.333-.319-2.043a18.728 18.728 0 0 1-.185-.722c-.034-.135-.069-.28-.104-.428-.172-.717-.368-1.533-.702-1.942-.403-.593-1.512-1.087-2.218-1.087-.907.099-1.915.89-2.52 1.58C.504 3.852.1 4.445 0 5.333v1.383c.403 5.037 2.52 8.692 5.141 11.556 2.621 2.864 6.25 5.135 11.19 5.728zM12.6 9.185v1.58c.806 0 1.411.593 1.411 1.383h1.613c0-1.58-1.31-2.963-3.024-2.963zm6.149 2.963c0-3.358-2.823-6.024-6.15-6.024h.102V4.642c4.234 0 7.66 3.358 7.66 7.506H18.75z"/></svg>
