<svg viewBox="0 0 23 28" xmlns="http://www.w3.org/2000/svg"><path d="M23 15.585c0-2.378-.316-4.755-.316-7.033 0-.793-.105-1.486-.21-2.278-.105-.298-.105-.694-.21-1.09-.316-.198-.211-.594-.527-.792-.42-.199-1.262-.1-1.789-.199-.736 0-1.367-.099-1.999-.198-2-.099-4.209-.099-6.313-.099-2.105 0-4.21-.099-5.998-.396H3.323c-.105 0-.105.1-.21.1-.632 0-1.158.197-1.684.296-.21.1-.421.198-.737.297-.105.199-.526.1-.631.397-.21.198.21.495 0 .594v.891c.21.1 0 .595.105.793v.99c0 1.288.105 2.378.105 3.666.526 2.773.421 6.438.105 9.31.21.595.421 1.09.527 1.685.315.495.315 1.09.736 1.486.526.198 1.263.198 2 .198.42.099.736.297 1.157.297 2.946-.198 5.787-.198 8.839-.198 2.841.198 6.103.198 8.734-.198.21-.1.105-.495.21-.793-.105-.396.21-.396.21-.792.211-2.08.211-4.458.211-6.934zM9.32 9.443a10.343 10.343 0 0 1 2.526-.297c.737.1 1.368.297 2 .496.105.198-.211.495.21.693.105 0 .105 0 .21.099.421 0 .842.198 1.158.396.526.1.526.495 1.157.396-.105.198-.105.496-.105.793.316 1.188.526 2.774.316 4.26-.21.197-.21.395-.316.693-.316.297-.526.792-.842 1.09a1.234 1.234 0 0 1-.526.495c-.105.198-.21.495-.526.495-.316.198-.631 0-.842-.1-.42.199-.947.298-1.263.595l-2.525-.297c-.21-.1-.526-.297-.842-.297a2.317 2.317 0 0 0-.842-.495c-.105-.1-.315-.1-.526-.199-.21 0-.21-.198-.526-.198-.105-.396-.42-.594-.526-1.09-.21-.297-.316-.792-.526-1.188 0-1.387.105-2.675.42-3.764.316-.595.843-1.09 1.158-1.684.21 0 .421-.1.421-.297.316.099.421-.1.737-.1.21 0 .21-.296.42-.495zM7.533 6.77c-.105-.297-.105-.694-.105-1.09 0-.297.315-.297.315-.495 0-.1-.105-.1-.21-.1.105-.098.736-.098.842 0 .105.496-.421.496-.527.694 0 .198.316 0 .527.1 0 .89-.106 1.485 0 2.179h-.527c0 .198.21.198.527.198-.106.297.105.396.105.594-.21.198-.737 0-1.158.1 0-.595.316-1.388.21-2.18zm-.737-1.585c.105 0 .105 0 .21.099.211.297 0 .693-.105.892-.21-.199 0-.694-.105-.991zm.21 1.783c-.105-.1-.21-.198-.21-.495.21.099.21.297.21.495zm0 1.387c-.105.099-.105 0-.105-.198.106-.1.106.099.106.198zm-.21.198c.21 0 .105.198.21.198 0 .198-.315.198-.42.1.105-.1.21-.2.21-.298zm-2.42-1.189c0-.099 0-.198-.105-.198-.105-.693.105-1.387 0-1.981.315-.198.842 0 1.157-.1v1.09c-.105.1-.21.1-.42.1-.106.297.315.099.42.297 0 .891-.105 1.783.21 2.377-.63-.099-.946.1-1.472.1.105-.595 0-1.388.526-1.586 0-.099-.316 0-.316-.099zm-.526 0c-.21 0-.21-.495-.105-.594.315 0 .21.495.105.594zm-.21.99c.105-.296 0-.296.105-.693.21 0 .21.793-.106.694zm.21-2.08c-.316.1-.316-.297-.21-.396.315 0 .42.298.21.397zm0-1.089c0 .198-.105.198-.105.297-.21 0-.106-.198-.21-.198.104-.099.21-.099.315-.099zm-.21 3.665c.105 0 .105.297-.106.198.105 0 .105-.099.105-.198zm-.737-3.665c0 .297-.421.297-.421 0h.42zm-1.052.099c0 .198-.316.198-.421.396-.21-.198.105-.495.42-.396zm-.421.693c.21-.198.526-.396.736-.594 0-.099.106-.099.106-.198h.21c.105.396-.316.297-.316.495 0 .1-.105.1-.105.198 0 .298.105.595.105.99-.315 0-.315.298-.631.199 0-.396-.21-.594-.105-1.09zm.105 3.27V7.66c.21-.198.42-.396.631-.495.316.495.21 1.387.526 1.882-.42.1-.841.1-1.157.198zM20.685 20.24c-.105.99-.21 1.98-.42 2.773-3.052.1-6.314 0-9.366.198-.21 0-.316 0-.21-.198-.316 0-.316.198-.527.198.21-.297.421-.891.21-1.288-.84 0-.84.793-1.157 1.288-.736-.099-1.157.1-1.894.1.21-.694.737-.991.947-1.685-.42-.495-1.052.1-1.262.496-.21.495-.632.792-.842 1.287H5.112c.21-.495.526-.891.841-1.386.21-.496.632-.694.737-1.387-.21-.297-.42 0-.737 0-.105.198-.315.297-.42.495-.211.396-.527.694-.737 1.09-.21.198-.316 0-.526.198-.421.297-.632.693-1.052.99-.21-.099 0-.396.21-.396 0-.198-.105-.495.105-.594a2.38 2.38 0 0 1 .421-.892c.105-.693.526-1.188.737-1.882-.632.1-.737.595-1.053.99-.21.397-.526.793-.736 1.288-.21-.098 0-.594-.105-.792.105-.594.315-1.09.42-1.684a1.78 1.78 0 0 0 .211-.792c.21-.198 0-.595-.105-.793-.21 0-.421.1-.526.297-.21 0-.21.496-.316.297 0-2.575-.526-4.754-.526-7.33 0-.297-.21-.396-.21-.693 1.683 0 3.261.099 5.05.198-.105.1-.21.297-.315.396-.106.1-.21.198-.421.297-.632 1.684-1.053 3.963-.632 6.142.21.594.632.99 1.053 1.387.947.495 1.683 1.09 2.63 1.684 1.789.396 3.999.396 5.788 0 .21-.1.526-.198.736-.396 1.473-1.19 2.947-2.477 3.157-4.854V13.9c-.21-1.585-.737-2.873-1.789-3.566.316-.198 1.158 0 1.789.099h.736c.421 0 .948-.1 1.474 0 .105.198.105.495.21.792-.105 1.684-.21 3.27-.21 5.052.105.496.105.99.21 1.387-.21.793-.316 1.684-.526 2.576zm.42-11.095c-.63-.099-1.262-.297-1.998-.396.105-.297.841 0 1.052-.198.42-.198.316-.892.316-1.486 0-.297.105-.594.105-1.09-.421-.99-1.894-.396-3.052-.495-.21.694-.526 1.783-.315 2.675.21.495 1.052.297 1.578.495-.105.297-.737.099-1.052.099-.316-.1-.737-.1-1.053-.198-2.42.099-4.524 0-6.84.198.106-1.189.106-2.476-.104-3.566h3.261c-.315.396-.947.495-1.367.792-.421.199-.947.496-1.158.892.21.099.526-.198.842-.396.42-.1.526-.397.842-.496.42-.396 1.157-.594 1.789-.891.42 0 .736 0 1.052.099 1.368 0 2.63.099 3.998.099.632.1 1.579.1 2.105.297l.316.892c-.106.99-.316 1.783-.316 2.674zm-6.207-3.665c.105-.099 0-.099 0 0zm0 0c-.527.198-1.053.297-1.474.694.527-.199 1.158-.298 1.474-.694zm1.157.594c.105-.099 0-.099 0 0zm-1.894.892c.737-.198 1.263-.594 1.789-.892-.421 0-.631.298-1.052.397-.106.198-.527.198-.737.495zm-.737-.792c-.105 0 .106.099 0 0zm-.63.594c.104-.1 0-.1 0 0zm-.106.099c.105 0 .105-.1 0 0 0-.1 0-.1 0 0zm-.105 0c.105 0 .105 0 0 0zm-.842.594c.316-.099.631-.297.842-.594-.316.198-.632.396-.842.594zm2.42.99c.526 0 .737-.395 1.263-.494.315-.298.841-.397 1.052-.793-.631 0-.842.396-1.263.495-.315.397-.841.496-1.052.793zm-2.42-.99c-.316 0 0 .297 0 0zm-.631.396c.105 0 .21 0 0 0zm3.051.595c-.21.099 0 .099 0 0zm-1.263 1.783c-.21-.198-.736-.198-1.052-.396-.736 0-1.263.099-1.789.198-.315.198-.631.297-.947.495-.316.198-.42.396-.842.495-.21.198-.42.496-.736.595 0 .198-.21.297-.316.396-.105.099-.105.297-.21.396 0 .1 0 .297-.106.297.106 1.486.316 2.873.737 4.16.316.595 1.052.793 1.473 1.288.632.297 1.368.397 2.21.496.316-.1.631-.1.947-.1 1.263-.198 2.21-.693 2.946-1.386.106-.297.316-.496.526-.694-.315-.693.316-1.09.526-1.584 0-1.288-.21-2.477-.63-3.368-.316-.595-.948-.793-1.474-1.09-.105 0-.21 0-.21-.1-.21-.098-.737-.197-1.053-.098zm-3.577 4.358c-.106-.099-.106-.198-.21-.396.315-.099.21.198.21.396zm.105.298c0-.1.105 0 0 0 0 .198 0 .099 0 0zm.42-2.08c0-.1.106 0 0 0 .106.098 0 .098 0 0zm1.79-2.08c-.21.296 0 .594.105.792-.316 0-.631-.793-.105-.793zm.42 3.862c.106 0 0 .1 0 0zm.737 2.873c0-.1.105 0 .21 0 0 .099-.21.099-.21 0zm2.315-2.476c-.21-.1-.105.198-.42.198.104-.198.104-.297.21-.496.21 0 .315.1.21.298zm-1.157-3.765c.21.1.42.198.63.397.106.198.211.396.422.495.105.792.21 1.486.21 2.377-.315.1-.42.298-.736.397-.842 0-1.473-.199-2-.496-.21-.297-.42-.495-.526-.792v-1.09c.21-.198.316-.396.526-.594.21-.1.527-.198.527-.595 0-.099-.106-.099-.106-.198.21 0 .21.198.421.198.21 0 .316-.198.632-.099z"/></svg>
