<svg viewBox="0 0 102 34" xmlns="http://www.w3.org/2000/svg">
<path fill-rule="evenodd" clip-rule="evenodd" d="M25.7204 6.16576C25.2204 6.4641 24.7204 6.56355 24.2204 6.663C23.8204 6.663 23.3204 6.663 22.7204 6.36465C22.5204 6.26521 22.4204 6.06631 22.3204 5.86742V5.46962C22.2204 5.27073 22.1204 5.07183 22.2204 4.87294C22.2204 4.75643 22.2547 4.67404 22.2831 4.60579C22.3033 4.55753 22.3204 4.51634 22.3204 4.47515C22.1704 3.72929 22.1892 2.98343 22.2079 2.23757C22.2142 1.98895 22.2204 1.74034 22.2204 1.49172C22.2204 0.596686 23.7204 0.0994477 24.4204 0C25.2204 0 26.2204 0.198895 26.2204 1.19337C26.2204 1.36563 26.2183 1.53582 26.2163 1.70423C26.204 2.70255 26.1926 3.63857 26.6204 4.57459C26.9204 5.17128 26.4204 5.66852 25.9204 5.96686L25.7204 6.16576ZM75.8867 17.7575C76.7534 19.437 77.62 21.1166 78.22 22.9729C78.7086 24.4845 79.3445 25.9082 79.9838 27.3394C80.5221 28.5446 81.0629 29.7552 81.52 31.0282C82.12 32.7188 78.12 33.8127 77.62 32.0226C77.1863 30.5668 76.5761 29.1403 75.965 27.7113C75.4489 26.5047 74.932 25.296 74.52 24.0668C74.02 22.4756 73.32 20.9839 72.52 19.4922C71.32 21.4812 70.02 23.3707 68.42 25.0613C68.52 27.1497 68.42 29.2381 68.22 31.3265C68.12 32.4204 66.22 32.7188 65.52 32.7188H65.42C64.82 32.7188 63.82 32.321 64.32 31.6248L64.3351 31.356C64.4298 29.6648 64.52 28.0543 64.52 26.3541C64.22 26.2547 64.12 26.0558 64.42 25.7574V25.658C64.3671 22.0273 64.0622 18.4244 63.7572 14.82C63.4858 11.6122 63.2142 8.40281 63.12 5.17174C63.02 3.68003 67.02 2.88445 67.02 4.17727C67.1313 7.2219 67.3976 10.2973 67.6635 13.3693C67.8754 15.816 68.087 18.2607 68.22 20.6856C69.12 19.1939 69.92 17.7022 70.72 16.111C70.52 15.6138 70.82 15.1165 71.32 14.8182C71.37 14.7684 71.395 14.6939 71.42 14.6193C71.445 14.5447 71.47 14.4701 71.52 14.4204C72.52 12.4314 73.52 10.4425 74.42 8.35407C75.12 6.66346 76.12 5.27119 77.52 3.97837C78.22 3.48113 79.42 3.18279 80.32 3.28224C81.22 3.38169 81.22 3.87892 80.62 4.27672C79.2076 5.35081 78.5545 6.90542 77.9152 8.42726C77.785 8.73708 77.6553 9.04578 77.52 9.34855C76.62 11.3375 75.62 13.3265 74.62 15.216C75.02 16.0779 75.4534 16.9177 75.8867 17.7575ZM61.3201 18.5966C61.2746 16.8762 61.1255 15.1764 60.9765 13.4785C60.7982 11.4467 60.6201 9.41765 60.6201 7.35905C60.6201 5.37009 56.6201 6.06623 56.6201 7.65739C56.6201 9.89497 56.8154 12.1325 57.0108 14.3701C57.1279 15.7127 57.2451 17.0552 57.3201 18.3977V18.5966C56.3823 18.5966 55.4201 18.6451 54.4456 18.6942C53.4458 18.7445 52.4329 18.7955 51.4201 18.7955C51.5198 16.5157 51.3711 14.2358 51.2216 11.9437C51.0711 9.63659 50.9198 7.31688 51.0201 4.9723C51.0201 4.37561 47.1201 4.87285 47.1201 5.96678C47.0149 8.32122 47.1865 10.6481 47.3582 12.9765C47.5128 15.0737 47.6675 17.1721 47.6201 19.2928C47.5701 20.337 47.5201 21.4061 47.4701 22.4752L47.4701 22.4764C47.4201 23.545 47.3701 24.6137 47.3201 25.6574C47.3201 26.3867 47.409 27.116 47.4979 27.8453C47.5423 28.2098 47.5868 28.5747 47.6201 28.9392C47.6479 29.2151 47.6987 29.5139 47.7513 29.823C47.8882 30.628 48.0369 31.5024 47.8201 32.221C47.6201 33.0166 51.4201 32.5193 51.7201 31.5248C52.0824 30.2278 51.8147 28.722 51.5637 27.3099C51.4682 26.7731 51.3752 26.2499 51.3201 25.7569C51.1584 24.3899 51.2582 22.9579 51.3552 21.5661C51.3782 21.2366 51.401 20.9092 51.4201 20.5856C51.7404 20.5697 52.0633 20.5512 52.3879 20.5326C54.0902 20.4352 55.8404 20.335 57.5201 20.5856C57.6201 21.9779 57.7201 23.3701 57.8201 24.663L57.8416 24.9186C57.934 26.014 58.0201 27.036 58.0201 28.1436C58.0201 28.3316 58.0237 28.5373 58.0275 28.754C58.0437 29.684 58.0634 30.818 57.8201 31.6243C57.0201 33.7127 60.9201 33.5138 61.5201 32.0221C62.1591 30.2973 62.0482 28.2411 61.9479 26.3829L61.9478 26.3812C61.9383 26.2043 61.9288 26.0292 61.9201 25.8563C61.8511 24.998 61.7582 24.1515 61.6662 23.3128C61.4916 21.7221 61.3201 20.1594 61.3201 18.5966ZM38.5232 17.3607C40.5292 17.1873 42.5742 17.0105 43.9205 18.7956C45.1232 20.3693 45.0037 22.3015 44.8808 24.2897C44.8095 25.4426 44.737 26.6144 44.9205 27.7459C45.2205 28.9393 45.5205 30.3316 44.5205 31.2266C43.6205 32.1216 42.5205 32.6189 41.3205 33.0167C39.0205 33.7128 36.2205 34.21 33.8205 33.9117C31.04 33.5479 31.2042 31.5867 31.375 29.5476C31.4376 28.8 31.501 28.0418 31.4205 27.3481C31.2205 26.2542 35.2205 25.4586 35.3205 26.3537C35.3959 26.9534 35.2866 27.6661 35.1747 28.396C34.9897 29.6027 34.7974 30.8563 35.4205 31.7238C35.9071 32.498 37.2459 32.3305 38.0547 32.2293L38.1205 32.2211C38.2544 32.2044 38.405 32.1906 38.5659 32.1758C39.3666 32.1022 40.4209 32.0052 40.9205 31.4255C41.5821 30.7018 41.2808 29.5428 41.0011 28.4669C40.858 27.9165 40.7205 27.3879 40.7205 26.9504C40.7205 26.5514 40.7513 26.0746 40.7847 25.5557C40.9514 22.9708 41.1853 19.3425 38.0205 19.094C37.4648 19.07 36.7864 19.133 36.0616 19.2004C33.7868 19.4119 31.0547 19.6659 30.2205 17.4034C29.8875 16.5424 29.9094 15.6372 29.9316 14.7174C29.9427 14.2561 29.9539 13.791 29.9205 13.326C29.9205 12.7956 29.8415 12.2652 29.7625 11.7349C29.6638 11.0719 29.565 10.4089 29.6205 9.7459C29.8205 7.16026 32.2205 5.96688 34.4205 5.3702C36.8205 4.77351 45.3205 3.87848 44.1205 8.45308C43.8205 9.44755 39.9205 10.0442 40.2205 9.04976C40.8205 6.76247 37.7205 6.46412 36.2205 6.56357C35.8205 6.56357 35.5205 6.56357 35.1205 6.66302C35.1605 6.66302 35.0565 6.69484 34.9109 6.7394C34.6925 6.80622 34.3805 6.90169 34.3205 6.96136C33.6205 7.75694 33.5205 8.75142 33.6205 9.84534C33.8205 11.2376 33.9205 12.5304 33.9205 13.9227C33.9205 15.0166 33.9205 16.9061 35.3205 17.3039C36.2896 17.5538 37.4003 17.4577 38.5232 17.3607ZM18.9805 17.9546C18.8502 16.4526 18.7204 14.9552 18.7204 13.4255C18.7204 12.8769 18.7456 12.3284 18.7706 11.7814C18.8456 10.1468 18.9198 8.52616 18.3204 6.96135C18.3204 6.86191 18.3454 6.7376 18.3704 6.61329C18.3954 6.48898 18.4204 6.36467 18.4204 6.26522C18.6204 5.27074 15.1204 5.76798 14.6204 6.76246C14.3204 7.0608 14.1204 7.35914 14.2204 7.75694C14.2204 7.80666 14.2454 7.85638 14.2704 7.90611C14.2954 7.95583 14.3204 8.00555 14.3204 8.05528C13.6204 11.2376 12.7204 14.3205 11.7204 17.4034C11.5204 18 11.2954 18.5719 11.0704 19.1437C10.8454 19.7155 10.6204 20.2873 10.4204 20.884C9.82041 19.7901 9.22041 18.6962 8.82041 17.5028C8.41088 16.5137 8.01847 15.5162 7.62565 14.5175C6.67562 12.1024 5.72307 9.68083 4.52041 7.35914C4.72041 5.86743 1.32041 5.96688 0.620408 7.35914C-0.179592 9.04976 -0.0795918 10.7404 0.220408 12.5304C0.520408 14.5194 0.620408 16.5083 0.620408 18.5967C0.620408 20.5857 0.720408 22.5498 0.820408 24.5139C0.920408 26.478 1.02041 28.4421 1.02041 30.431C0.620408 30.8288 0.520408 31.326 0.920408 31.8233C1.1204 32.0222 1.32042 32.2211 1.52041 32.3205C2.52041 33.0167 5.12041 32.42 5.12041 31.0277C5.12041 28.6024 5.01426 26.1771 4.9072 23.7309C4.83428 22.0646 4.76093 20.3885 4.72041 18.6962V17.5028C4.77041 17.5525 4.79541 17.6271 4.82041 17.7017C4.84541 17.7763 4.87041 17.8509 4.92041 17.9006C5.52041 19.4918 6.22041 21.0829 7.12041 22.5746C7.87761 23.8297 8.28089 25.1551 8.68757 26.4917C8.76426 26.7438 8.84108 26.9962 8.92041 27.2487C8.72041 27.4476 8.62041 27.7459 8.72041 27.9448C8.72041 28.1437 8.82041 28.2432 9.02041 28.3426C9.62041 28.8399 10.8204 28.641 11.5204 28.3426C11.7295 28.2733 11.9386 28.1557 12.1139 28.0571C12.19 28.0142 12.2599 27.9749 12.3204 27.9448C12.6204 27.7459 13.2204 27.2487 13.0204 26.7514C13.0204 26.7017 12.9954 26.652 12.9704 26.6023C12.9454 26.5526 12.9204 26.5028 12.9204 26.4531C13.2954 25.4835 13.5017 24.5139 13.7079 23.5443C13.7767 23.2211 13.8454 22.8979 13.9204 22.5746C14.2204 21.1824 14.7204 19.7901 15.2204 18.4973C15.2725 18.808 15.2974 19.1188 15.3235 19.4436C15.3475 19.7424 15.3725 20.0532 15.4204 20.3868C15.554 22.1144 15.5091 23.7975 15.4646 25.4659C15.4424 26.2946 15.4204 27.1198 15.4204 27.9448C15.4204 28.66 15.5012 29.3753 15.5902 30.1627L15.6204 30.431C15.7204 30.7294 16.0204 32.2211 15.9204 32.3205C15.1204 32.8178 15.3204 33.4144 16.1204 33.6133C17.0204 33.8122 18.2204 33.5139 18.9204 32.9172C19.9171 32.0086 19.6721 30.6885 19.4458 29.4695C19.3997 29.2208 19.3543 28.9763 19.3204 28.7404C19.0071 27.2449 19.0864 25.6713 19.1648 24.1175C19.2114 23.1916 19.2578 22.2725 19.2204 21.3813C19.1774 20.2259 19.0788 19.0889 18.9805 17.9546ZM27.2248 19.3612C27.0223 18.319 26.8201 17.279 26.8201 16.2102C26.8201 15.6384 26.8326 15.0666 26.8451 14.4948C26.8826 12.7793 26.9201 11.0638 26.6201 9.34833C26.5201 8.65219 22.5201 9.44778 22.7201 10.3428C22.9597 12.0104 22.9442 13.6781 22.9282 15.3963C22.9242 15.8299 22.9201 16.2667 22.9201 16.7075C22.9201 17.941 23.1125 19.1363 23.3063 20.3407C23.4249 21.0784 23.5442 21.8195 23.6201 22.5749C23.7821 23.7026 23.74 24.8304 23.6985 25.9425C23.6631 26.8898 23.6281 27.8257 23.7201 28.7406C23.7469 29.0063 23.8164 29.3218 23.8907 29.6584C24.0943 30.5817 24.3331 31.6649 23.8201 32.3208C23.4648 32.7625 24.9248 32.6548 25.3251 32.6253C25.3754 32.6216 25.409 32.6191 25.4201 32.6191C26.2201 32.5196 27.2201 32.2213 27.7201 31.6246C28.2664 31.0038 28.0819 29.8985 27.927 28.9703C27.8834 28.7091 27.8421 28.4618 27.8201 28.2434C27.6325 26.9996 27.6405 25.6779 27.6483 24.3758C27.653 23.5958 27.6576 22.8228 27.6201 22.0776C27.5739 21.1575 27.3992 20.2585 27.2248 19.3612ZM101.721 18.3983C101.521 17.6027 100.321 17.6027 99.4207 17.6027V16.6082C99.3207 13.9233 99.2207 11.2378 99.0207 8.6524C98.8207 6.1662 97.4207 5.37062 95.0207 5.47007C92.6207 5.56952 89.8207 5.96731 87.5207 6.86234C84.9207 7.85682 83.4207 9.74632 82.9207 12.5309C82.565 14.6535 82.8167 16.8769 83.0636 19.0577C83.1637 19.9418 83.263 20.8194 83.3207 21.68C83.4707 24.2905 83.452 26.9009 83.4332 29.5113C83.427 30.3814 83.4207 31.2519 83.4207 32.1221C83.4207 32.7187 87.3207 32.1221 87.3207 31.1276V22.8734C87.3207 22.4756 87.2957 22.0778 87.2707 21.68C87.2457 21.2823 87.2207 20.8845 87.2207 20.4867C88.2593 20.044 89.7931 20.2581 91.0874 20.4388C91.5378 20.5016 91.9593 20.5604 92.3207 20.5861C93.0739 20.6542 93.8271 20.5358 94.5482 20.4225C94.8802 20.3703 95.2054 20.3191 95.5207 20.2878C95.5207 22.5751 95.6207 24.8624 95.7207 27.1497C95.7207 27.4367 95.7497 27.787 95.7811 28.1674C95.8803 29.3685 96.0042 30.8696 95.3207 31.6248C94.9654 32.0666 96.4254 31.9589 96.8257 31.9293C96.876 31.9256 96.9096 31.9232 96.9207 31.9232C97.7207 31.8237 98.7207 31.5254 99.2207 30.9287C100.005 29.9749 99.8019 27.8115 99.6706 26.4159C99.6513 26.2109 99.6336 26.0225 99.6207 25.8569C99.5207 23.9673 99.5207 22.0778 99.5207 20.1883C100.621 19.9894 101.921 19.2933 101.721 18.3983ZM86.9707 16.4582L86.9702 16.4519C86.9203 15.8327 86.8705 15.2137 86.8207 14.6193C86.6207 12.332 86.9207 9.05019 89.1207 7.65792C89.5436 7.3776 90.2147 7.3442 90.8191 7.31412C91.0724 7.30152 91.314 7.2895 91.5207 7.26013C92.5207 7.06123 93.5207 6.86234 94.3207 7.45902C95.3439 8.13737 95.2766 10.3339 95.2345 11.7063C95.2272 11.9435 95.2207 12.1561 95.2207 12.332C95.2207 13.6579 95.3096 14.9839 95.3985 16.3098L95.3986 16.3112C95.443 16.9737 95.4874 17.6363 95.5207 18.2988C94.9207 18.3983 94.4207 18.3983 93.8207 18.3983C93.3946 18.3614 92.9684 18.3177 92.5435 18.2742C90.6753 18.0827 88.8316 17.8937 87.1207 18.2988C87.0707 17.7021 87.0207 17.0798 86.9707 16.4582Z" fill="black"/>
</svg>
