<svg width="23" height="28" viewBox="0 0 23 28" fill="none" xmlns="http://www.w3.org/2000/svg">
<path d="M15.7035 5.25484C16.7024 5.25484 17.7014 5.25484 18.4006 4.95313C18.8002 4.14856 19 3.04228 19 1.936C18.8002 1.936 18.9001 1.63428 18.8002 1.53371C18.8002 1.33257 18.5005 1.33257 18.5005 1.13142C18.2009 0.930282 18.0011 0.729141 17.8013 0.527999C17.102 0.326857 16.4028 0.226286 15.6036 0.0251435C14.8045 0.0251435 13.7056 -0.0754291 13.0064 0.125713C10.4092 0.125713 9.01066 1.232 7.71204 2.53942C7.71204 2.63999 7.71204 2.74056 7.61215 2.74056C7.01278 4.3497 7.51226 6.36112 7.41236 8.37254C7.51226 8.77483 7.51225 9.37826 7.61215 9.78054C6.61321 10.0823 5.41449 10.1828 4.21577 10.2834C3.91609 10.5851 4.01598 11.3897 4.01598 11.9931C4.11588 12.5965 4.31566 13.0994 4.41556 13.6022C4.61534 13.8034 5.01492 14.0045 5.2147 14.1051C5.3146 14.1051 5.3146 14.2057 5.3146 14.2057C5.81406 14.5074 6.813 14.2057 7.61215 14.3062C7.51225 16.3177 7.91183 18.2285 7.61215 20.0388C7.61215 20.3405 7.91183 20.4411 7.81193 20.8434C7.81193 21.8491 7.71204 22.8548 8.01172 23.5588C7.71204 24.0616 7.51225 24.5645 7.61215 25.3691C7.71204 25.3691 7.71204 25.5702 7.71204 25.6708C7.61215 26.1736 8.3114 25.8719 8.21151 26.3748C8.4113 26.8776 7.81193 26.5759 7.81193 26.8776V27.7828C8.3114 28.0845 9.31033 27.9839 10.1095 27.9839C11.0085 27.5816 12.3071 27.4811 12.9065 26.7771C13.406 26.9782 13.8055 26.7771 14.1052 26.5759C14.1052 26.2742 14.4049 26.2742 14.305 25.8719C14.305 25.5702 14.1052 25.3691 14.2051 24.9668V22.0502C14.0053 19.7371 14.2051 17.1222 13.9054 14.8091C14.8045 14.7085 15.8034 14.7085 16.5027 14.4068C16.9022 13.904 16.9022 13.2 17.0021 12.496C17.2019 12.2948 17.2019 11.8925 17.2019 11.4902C17.4017 11.2891 17.3018 10.7862 17.3018 10.384C17.2019 9.78054 17.102 9.07654 16.5027 8.97597C15.6036 8.77483 14.5048 9.5794 13.5059 9.27768C13.5059 8.1714 13.2062 6.96455 13.5059 5.85827C14.305 5.65712 15.0043 5.45598 15.7035 5.25484ZM11.9076 10.0823C12.0075 10.384 12.2072 10.5851 12.3071 10.7863C12.407 10.7863 12.5069 10.7862 12.5069 10.8868C13.7056 10.9874 14.7046 10.7863 15.6036 10.5851C15.6036 11.5908 15.3039 12.2948 15.1042 13.0994C14.4049 13.0994 13.6058 13.4011 13.1063 13.3005C12.8066 13.5017 12.7067 13.8034 12.5069 14.0045C12.5069 14.4068 12.6068 14.5074 12.5069 14.8091C12.3071 14.9097 12.407 15.4125 12.3071 15.6137V17.1222C12.407 17.4239 12.2072 17.4239 12.2072 17.6251V21.1451C12.1073 21.4468 12.3071 21.4468 12.3071 21.6479V24.6651C12.407 24.9668 12.2072 25.4696 12.407 25.5702C12.3071 25.9725 12.0075 25.5702 11.6079 25.6708C11.1084 25.7713 10.7088 26.0731 10.1095 26.0731C10.2094 25.6708 10.4092 25.4696 10.4092 24.9668C10.4092 24.5645 10.0096 24.6651 9.9097 24.4639C10.1095 23.8605 10.5091 23.3576 10.6089 22.6536C10.8087 22.1508 11.3082 21.3462 10.9086 20.8434C10.4092 20.7428 10.4092 21.1451 10.1095 21.2456C10.1095 21.3462 10.1095 21.4468 10.0096 21.4468C10.0096 21.5474 10.0096 21.6479 9.9097 21.6479C9.9097 21.7485 9.70991 21.7485 9.9097 21.6479C9.9097 21.5474 9.9097 21.4468 10.0096 21.4468C10.0096 21.3462 10.0096 21.2456 10.1095 21.2456V20.9439C10.5091 20.3405 10.8087 19.7371 10.9086 18.9325C11.1084 18.6308 11.2083 18.2285 11.3082 17.9268C11.508 17.6251 11.6079 17.0217 11.4081 16.7199C10.9086 16.7199 10.609 17.0217 10.5091 17.4239C10.2094 17.2228 10.7088 17.0217 10.6089 16.7199C10.7088 16.5188 10.8087 16.1165 10.9086 15.9154C11.1084 15.5131 11.508 14.6079 10.9086 14.3062C10.5091 14.3062 10.3093 14.5074 10.2094 14.8091C10.0096 15.0102 9.8098 15.2114 9.70991 15.5131C9.31034 15.4125 9.61002 14.8091 9.51012 14.4068C9.41023 13.904 9.61002 13.5017 9.51012 13.2C8.91076 12.3954 7.51225 13.0994 6.31353 12.8982C6.21364 12.5965 6.11375 11.8925 6.21364 11.6914C7.21257 11.5908 8.71098 11.8925 9.41023 11.4902C9.41023 11.3897 9.41023 11.2891 9.51012 11.2891C9.61002 10.5851 9.21044 10.2834 9.01066 9.88111C9.21044 9.07654 9.01065 7.86969 9.11055 6.86398C9.31033 6.76341 9.41023 6.46169 9.61001 6.26055C9.70991 5.25484 10.3093 4.75199 10.3093 3.74627C10.0096 3.74627 9.70991 3.6457 9.70991 3.94742C9.41023 3.84685 9.31034 4.45027 9.21044 4.14856C9.11055 3.6457 9.41023 3.54513 9.51012 3.14285C10.1095 2.74056 10.7088 2.33828 11.4081 1.936C13.1063 1.73485 16.0032 1.53371 17.5016 2.13714C17.6015 2.74056 17.2019 3.04227 17.3018 3.6457H15.8034C14.7046 3.84684 13.8055 4.3497 12.8066 4.65141C12.6068 4.75198 12.5069 4.95313 12.3071 5.0537C12.3071 5.45598 12.1074 5.65712 12.0075 6.05941C11.7078 7.4674 11.9076 8.67426 11.9076 10.0823Z" fill="#231F20"/>
</svg>
