<svg width="23" height="28" viewBox="0 0 23 28" fill="none" xmlns="http://www.w3.org/2000/svg">
<path d="M23 15.5849C23 13.2075 22.6843 10.8302 22.6843 8.55189C22.6843 7.75944 22.5791 7.06604 22.4739 6.27359C22.3686 5.97642 22.3686 5.58019 22.2634 5.18396C21.9477 4.98585 22.053 4.58962 21.7373 4.39151C21.3164 4.1934 20.4746 4.29245 19.9484 4.1934C19.2119 4.1934 18.5805 4.09434 17.9492 3.99528C15.9499 3.89623 13.7401 3.89623 11.6356 3.89623C9.53108 3.89623 7.42657 3.79717 5.63773 3.5H3.32276C3.21753 3.5 3.21753 3.59906 3.1123 3.59906C2.48095 3.59906 1.95482 3.79717 1.42869 3.89623C1.21824 3.99528 1.00779 4.09434 0.69211 4.1934C0.586884 4.39151 0.165978 4.29245 0.0607522 4.58962C-0.1497 4.78774 0.271204 5.08491 0.0607522 5.18396V6.07547C0.271204 6.17453 0.0607546 6.66981 0.16598 6.86793V7.85849C0.16598 9.14623 0.271205 10.2358 0.271205 11.5236C0.797334 14.2972 0.692111 17.9623 0.376433 20.8349C0.586885 21.4292 0.797337 21.9245 0.902562 22.5189C1.21824 23.0142 1.21824 23.6085 1.63914 24.0047C2.16527 24.2028 2.90185 24.2028 3.63843 24.2028C4.05934 24.3019 4.37501 24.5 4.79592 24.5C7.74224 24.3019 10.5833 24.3019 13.6349 24.3019C16.476 24.5 19.738 24.5 22.3686 24.1038C22.5791 24.0047 22.4739 23.6085 22.5791 23.3113C22.4739 22.9151 22.7895 22.9151 22.7895 22.5189C23 20.4387 23 18.0613 23 15.5849ZM9.32063 9.4434C10.1624 9.24528 10.899 9.14623 11.8461 9.14623C12.5826 9.24528 13.214 9.4434 13.8453 9.64151C13.9506 9.83962 13.6349 10.1368 14.0558 10.3349C14.161 10.3349 14.161 10.3349 14.2662 10.434C14.6871 10.434 15.1081 10.6321 15.4237 10.8302C15.9499 10.9292 15.9499 11.3255 16.5812 11.2264C16.476 11.4245 16.476 11.7217 16.476 12.0189C16.7917 13.2075 17.0021 14.7925 16.7917 16.2783C16.5812 16.4764 16.5812 16.6745 16.476 16.9717C16.1603 17.2689 15.9499 17.7642 15.6342 18.0613C15.529 18.2594 15.3185 18.4575 15.1081 18.5566C15.0028 18.7547 14.8976 19.0519 14.5819 19.0519C14.2662 19.25 13.9506 19.0519 13.7401 18.9528C13.3192 19.1509 12.7931 19.25 12.4774 19.5472C11.6356 19.4481 10.7938 19.3491 9.95199 19.25C9.74154 19.1509 9.42586 18.9528 9.11018 18.9528C8.89973 18.7547 8.58405 18.5566 8.26837 18.4575C8.16315 18.3585 7.9527 18.3585 7.74224 18.2594C7.53179 18.2594 7.53179 18.0613 7.21612 18.0613C7.11089 17.6651 6.79521 17.467 6.68999 16.9717C6.47953 16.6745 6.37431 16.1792 6.16386 15.783C6.16386 14.3962 6.26908 13.1085 6.58476 12.0189C6.90044 11.4245 7.42657 10.9292 7.74224 10.3349C7.9527 10.3349 8.16315 10.2359 8.16315 10.0377C8.47882 10.1368 8.58405 9.93868 8.89973 9.93868C9.11018 9.93868 9.11018 9.64151 9.32063 9.4434ZM7.53179 6.76887C7.42657 6.4717 7.42656 6.07547 7.42656 5.67925C7.42656 5.38208 7.74224 5.38208 7.74224 5.18396C7.74224 5.08491 7.63702 5.08491 7.53179 5.08491C7.63702 4.98585 8.26837 4.98585 8.3736 5.08491C8.47882 5.58019 7.9527 5.58019 7.84747 5.7783C7.84747 5.97642 8.16315 5.7783 8.3736 5.87736C8.3736 6.76887 8.26837 7.36321 8.3736 8.05661H7.84747C7.84747 8.25472 8.05792 8.25472 8.3736 8.25472C8.26837 8.55189 8.47882 8.65094 8.47882 8.84906C8.26837 9.04717 7.74224 8.84906 7.32134 8.94811C7.32134 8.35377 7.63702 7.56132 7.53179 6.76887ZM6.79521 5.18396C6.90044 5.18396 6.90044 5.18396 7.00566 5.28302C7.21611 5.58019 7.00566 5.97642 6.90043 6.17453C6.68998 5.97642 6.90044 5.48113 6.79521 5.18396ZM7.00566 6.96698C6.90044 6.86792 6.79521 6.76887 6.79521 6.4717C7.00566 6.57075 7.00566 6.76887 7.00566 6.96698ZM7.00566 8.35377C6.90044 8.45283 6.90043 8.35377 6.90043 8.15566C7.00566 8.0566 7.00566 8.25472 7.00566 8.35377ZM6.79521 8.55189C7.00566 8.55189 6.90044 8.75 7.00566 8.75C7.00566 8.94812 6.68998 8.94811 6.58476 8.84906C6.68998 8.75 6.79521 8.65094 6.79521 8.55189ZM4.37502 7.36321C4.37502 7.26415 4.37501 7.16509 4.26979 7.16509C4.16456 6.4717 4.37501 5.7783 4.26979 5.18396C4.58546 4.98585 5.1116 5.18396 5.42727 5.08491V6.17453C5.32205 6.27359 5.21682 6.27359 5.00637 6.27359C4.90114 6.57076 5.32205 6.37264 5.42727 6.57076C5.42727 7.46227 5.32205 8.35377 5.63773 8.94811C5.00637 8.84906 4.69069 9.04717 4.16456 9.04717C4.26979 8.45283 4.16456 7.66038 4.69069 7.46226C4.69069 7.36321 4.37502 7.46226 4.37502 7.36321ZM3.84889 7.36321C3.63843 7.36321 3.63843 6.86793 3.74366 6.76887C4.05934 6.76887 3.95411 7.26415 3.84889 7.36321ZM3.63843 8.35377C3.74366 8.0566 3.63843 8.0566 3.74366 7.66038C3.95411 7.66038 3.95411 8.45283 3.63843 8.35377ZM3.84889 6.27359C3.53321 6.37264 3.53321 5.97642 3.63843 5.87736C3.95411 5.87736 4.05934 6.17453 3.84889 6.27359ZM3.84889 5.18396C3.84889 5.38208 3.74366 5.38208 3.74366 5.48113C3.53321 5.48113 3.63844 5.28302 3.53321 5.28302C3.63844 5.18396 3.74366 5.18396 3.84889 5.18396ZM3.63843 8.84906C3.74366 8.84906 3.74366 9.14623 3.53321 9.04717C3.63844 9.04717 3.63843 8.94811 3.63843 8.84906ZM2.90185 5.18396C2.90185 5.48113 2.48095 5.48113 2.48095 5.18396H2.90185ZM1.84959 5.28302C1.84959 5.48113 1.53392 5.48113 1.42869 5.67925C1.21824 5.48113 1.53392 5.18396 1.84959 5.28302ZM1.42869 5.97641C1.63914 5.7783 1.95482 5.58019 2.16527 5.38208C2.16527 5.28302 2.2705 5.28302 2.2705 5.18396H2.48095C2.58618 5.58019 2.16527 5.48113 2.16527 5.67925C2.16527 5.7783 2.06005 5.7783 2.06005 5.87736C2.06005 6.17453 2.16527 6.4717 2.16527 6.86793C1.84959 6.86793 1.84959 7.1651 1.53392 7.06604C1.53392 6.66981 1.32347 6.4717 1.42869 5.97641ZM1.53392 9.24529V7.66038C1.74437 7.46226 1.95482 7.26415 2.16527 7.16509C2.48095 7.66038 2.37572 8.55189 2.6914 9.04717C2.2705 9.14623 1.84959 9.14623 1.53392 9.24529ZM20.685 20.2406C20.5798 21.2311 20.4746 22.2217 20.2641 23.0142C17.2126 23.1132 13.9506 23.0141 10.899 23.2123C10.6886 23.2123 10.5833 23.2123 10.6886 23.0142C10.3729 23.0142 10.3729 23.2123 10.1624 23.2123C10.3729 22.9151 10.5833 22.3207 10.3729 21.9245C9.53108 21.9245 9.53108 22.717 9.2154 23.2123C8.47882 23.1132 8.05792 23.3113 7.32134 23.3113C7.53179 22.6179 8.05792 22.3208 8.26837 21.6274C7.84747 21.1321 7.21611 21.7264 7.00566 22.1226C6.79521 22.6179 6.37431 22.9151 6.16386 23.4104H5.1116C5.32205 22.9151 5.63773 22.5189 5.9534 22.0236C6.16386 21.5283 6.58476 21.3302 6.68999 20.6368C6.47953 20.3396 6.26908 20.6368 5.9534 20.6368C5.84818 20.8349 5.63772 20.934 5.5325 21.1321C5.32205 21.5283 5.00637 21.8255 4.79592 22.2217C4.58547 22.4198 4.48024 22.2217 4.26979 22.4198C3.84888 22.717 3.63843 23.1132 3.21753 23.4104C3.00708 23.3113 3.21753 23.0142 3.42798 23.0142C3.42798 22.816 3.32276 22.5189 3.53321 22.4198C3.63844 22.0236 3.74366 21.8255 3.95411 21.5283C4.05934 20.8349 4.48024 20.3396 4.69069 19.6462C4.05934 19.7453 3.95411 20.2406 3.63843 20.6368C3.42798 21.033 3.1123 21.4292 2.90185 21.9245C2.6914 21.8255 2.90185 21.3302 2.79663 21.1321C2.90185 20.5377 3.1123 20.0424 3.21753 19.4481C3.32275 19.25 3.42798 18.9528 3.42798 18.6557C3.63843 18.4575 3.42798 18.0613 3.32276 17.8632C3.1123 17.8632 2.90185 17.9623 2.79663 18.1604C2.58618 18.1604 2.58618 18.6557 2.48095 18.4575C2.48095 15.8821 1.95482 13.7028 1.95482 11.1274C1.95482 10.8302 1.74437 10.7311 1.74437 10.434C3.42798 10.434 5.00637 10.533 6.79521 10.6321C6.68998 10.7311 6.58476 10.9292 6.47953 11.0283C6.37431 11.1274 6.26908 11.2264 6.05863 11.3255C5.42727 13.0094 5.00637 15.2877 5.42727 17.467C5.63773 18.0613 6.05863 18.4575 6.47953 18.8538C7.42657 19.3491 8.16315 19.9434 9.11018 20.5377C10.899 20.934 13.1088 20.934 14.8976 20.5377C15.1081 20.4387 15.4237 20.3396 15.6342 20.1415C17.1073 18.9528 18.5805 17.6651 18.791 15.2877V13.9009C18.5805 12.316 18.0544 11.0283 17.0021 10.3349C17.3178 10.1368 18.1596 10.3349 18.791 10.434C19.0014 10.434 19.2119 10.434 19.5275 10.434C19.9484 10.434 20.4746 10.3349 21.0007 10.434C21.1059 10.6321 21.1059 10.9292 21.2112 11.2264C21.1059 12.9104 21.0007 14.4953 21.0007 16.2783C21.1059 16.7736 21.1059 17.2689 21.2112 17.6651C21.0007 18.4575 20.8955 19.3491 20.685 20.2406ZM21.1059 9.14623C20.4746 9.04717 19.8432 8.84906 19.1066 8.75C19.2119 8.45283 19.9484 8.75 20.1589 8.55189C20.5798 8.35377 20.4746 7.66038 20.4746 7.06604C20.4746 6.76887 20.5798 6.4717 20.5798 5.97641C20.1589 4.98585 18.6857 5.58019 17.5282 5.48113C17.3178 6.17453 17.0021 7.26415 17.2126 8.15566C17.423 8.65094 18.2648 8.45283 18.791 8.65094C18.6857 8.94811 18.0544 8.75 17.7387 8.75C17.423 8.65095 17.0021 8.65094 16.6864 8.55189C14.2662 8.65094 12.1617 8.55189 9.84676 8.75C9.95199 7.56132 9.95199 6.27359 9.74153 5.18396H13.0035C12.6879 5.58019 12.0565 5.67924 11.6356 5.97641C11.2147 6.17453 10.6886 6.4717 10.4781 6.86793C10.6886 6.96698 11.0042 6.66981 11.3199 6.4717C11.7408 6.37264 11.8461 6.07547 12.1617 5.97641C12.5826 5.58019 13.3192 5.38208 13.9506 5.08491C14.3715 5.08491 14.6872 5.08491 15.0028 5.18396C16.3708 5.18396 17.6335 5.28302 19.0014 5.28302C19.6328 5.38208 20.5798 5.38208 21.1059 5.58019C21.2112 5.87736 21.3164 6.17453 21.4216 6.4717C21.3164 7.46226 21.1059 8.25472 21.1059 9.14623ZM14.8976 5.48113C14.8976 5.38208 15.0028 5.38208 14.8976 5.48113ZM14.8976 5.48113C14.3715 5.67924 13.8453 5.7783 13.4244 6.17453C13.9506 5.97642 14.5819 5.87736 14.8976 5.48113ZM16.0551 6.07547C16.0551 5.97642 16.1603 5.97642 16.0551 6.07547ZM14.161 6.96698C14.8976 6.76887 15.4237 6.37264 15.9499 6.07547C15.529 6.07547 15.3185 6.37264 14.8976 6.4717C14.7924 6.66981 14.3715 6.66981 14.161 6.96698ZM13.4244 6.17453C13.5297 6.27359 13.3192 6.17453 13.4244 6.17453ZM12.7931 6.76887C12.7931 6.66981 12.8983 6.66981 12.7931 6.76887ZM12.6879 6.86793C12.7931 6.76887 12.7931 6.86793 12.6879 6.86793C12.6879 6.76887 12.6879 6.76887 12.6879 6.86793ZM12.5826 6.86793C12.6879 6.86793 12.6879 6.86793 12.5826 6.86793ZM11.7408 7.46226C12.0565 7.36321 12.3722 7.1651 12.5826 6.86793C12.267 7.06604 11.9513 7.26415 11.7408 7.46226ZM14.161 8.45283C14.6872 8.45283 14.8976 8.0566 15.4237 7.95755C15.7394 7.66038 16.2655 7.56132 16.476 7.16509C15.8446 7.16509 15.6342 7.56132 15.2133 7.66038C14.8976 8.0566 14.3715 8.15566 14.161 8.45283ZM11.7408 7.46226C11.7408 7.75943 11.4251 7.46226 11.7408 7.46226ZM11.1095 7.85849C11.3199 7.85849 11.2147 7.85849 11.1095 7.85849ZM14.161 8.45283C14.161 8.55189 13.9506 8.55189 14.161 8.45283ZM12.8983 10.2359C12.6879 10.0377 12.1617 10.0377 11.8461 9.83962C11.1095 9.83962 10.5833 9.93868 10.0572 10.0377C9.74153 10.2359 9.42586 10.3349 9.11018 10.533C8.7945 10.7311 8.68928 10.9292 8.26837 11.0283C8.05792 11.2264 7.84747 11.5236 7.53179 11.6226C7.53179 11.8208 7.32134 11.9198 7.21612 12.0189C7.11089 12.1179 7.11089 12.316 7.00566 12.4151C7.00566 12.5141 7.00566 12.7123 6.90043 12.7123C7.00566 14.1981 7.21611 15.5849 7.63702 16.8726C7.95269 17.467 8.68928 17.6651 9.11018 18.1604C9.74154 18.4575 10.4781 18.5566 11.3199 18.6557C11.6356 18.5566 11.9513 18.5566 12.267 18.5566C13.5297 18.3585 14.4767 17.8632 15.2133 17.1698C15.3185 16.8726 15.529 16.6745 15.7394 16.4764C15.4237 15.783 16.0551 15.3868 16.2655 14.8915C16.2655 13.6038 16.0551 12.4151 15.6342 11.5236C15.3185 10.9292 14.6872 10.7311 14.161 10.434C14.0558 10.434 13.9506 10.434 13.9506 10.3349C13.7401 10.2358 13.214 10.1368 12.8983 10.2359ZM9.32063 14.5943C9.21541 14.4953 9.21541 14.3962 9.11018 14.1981C9.42586 14.0991 9.32063 14.3962 9.32063 14.5943ZM9.42586 14.8915C9.53108 14.8915 9.42586 14.7925 9.42586 14.8915C9.42586 14.9906 9.42586 15.0896 9.42586 14.8915ZM9.84676 12.8113C9.95199 12.8113 9.84676 12.7123 9.84676 12.8113C9.84676 12.9104 9.95199 12.9104 9.84676 12.8113ZM11.6356 10.7311C11.4251 11.0283 11.6356 11.3255 11.7408 11.5236C11.4251 11.5236 11.1095 10.7311 11.6356 10.7311ZM12.0565 14.5943C12.0565 14.6934 12.1617 14.5943 12.0565 14.5943ZM12.7931 17.467C12.7931 17.3679 12.8983 17.467 13.0035 17.467C13.0035 17.566 12.7931 17.566 12.7931 17.467ZM15.1081 14.9906C14.8976 14.8915 15.0028 15.1887 14.6872 15.1887C14.7924 14.9906 14.7924 14.8915 14.8976 14.6934C15.1081 14.6934 15.2133 14.7924 15.1081 14.9906ZM13.9506 11.2264C14.161 11.3255 14.3715 11.4245 14.5819 11.6226C14.6872 11.8208 14.7924 12.0189 15.0028 12.1179C15.1081 12.9104 15.2133 13.6038 15.2133 14.4953C14.8976 14.5943 14.7924 14.7925 14.4767 14.8915C13.6349 14.8915 13.0035 14.6934 12.4774 14.3962C12.267 14.0991 12.0565 13.9009 11.9513 13.6038V12.5142C12.1617 12.316 12.267 12.1179 12.4774 11.9198C12.6879 11.8208 13.0035 11.7217 13.0035 11.3255C13.0035 11.2264 12.8983 11.2264 12.8983 11.1274C13.1088 11.1274 13.1088 11.3255 13.3192 11.3255C13.5297 11.3255 13.6349 11.1274 13.9506 11.2264Z" fill="#231F20"/>
</svg>
