<?xml version="1.0" encoding="utf-8"?><svg viewBox="0 0 768 101" xmlns="http://www.w3.org/2000/svg" xmlns:xlink="http://www.w3.org/1999/xlink"><style>:root>svg{display:none}:root>svg:target{display:block}</style><svg viewBox="0 0 28 35" id="academy-logo-footer" xmlns="http://www.w3.org/2000/svg"><path d="M13.969.044h-.1l-13.5 1.4v24.7l13.5 8 13.4-8v-24.7l-13.3-1.4zm11.4 12.1l-11.5-6.8v-.1h-.1l-.1-.1v.1l-11.4 6.9v-9l11.5-1.2 11.6 1.2v9zm-11.6-5.3l11.5 6.7-4.5 2.6-7.1-4.2v1.4l5.9 3.5-.9.5-5-3v1.4l3.8 2.3-.8.5-3-1.8v1.4l1.9 1.1-1.8 1.1-11.4-6.7 11.4-6.8zm-11.5 8.3l11.4 6.8v1l-7.9-4.7v1.4l8 4.8v1.1l-8-4.7v1.4l8 4.8 8.1-4.9v-5.2l3.4-2v10l-11.5 6.9-11.5-6.8v-9.9z"/></svg><svg viewBox="0 0 23 28" id="fb" xmlns="http://www.w3.org/2000/svg"><path d="M15.704 5.255c.998 0 1.997 0 2.697-.302.4-.804.599-1.91.599-3.017-.2 0-.1-.302-.2-.402 0-.201-.3-.201-.3-.403-.3-.2-.499-.402-.699-.603-.699-.201-1.398-.302-2.197-.503-.8 0-1.898-.1-2.598.1-2.597 0-3.995 1.107-5.294 2.414 0 .101 0 .202-.1.202-.6 1.609-.1 3.62-.2 5.632.1.402.1 1.005.2 1.408-.999.301-2.198.402-3.396.502-.3.302-.2 1.107-.2 1.71.1.604.3 1.106.4 1.61.2.2.599.402.799.502.1 0 .1.1.1.1.5.302 1.498 0 2.297.101-.1 2.012.3 3.923 0 5.733 0 .301.3.402.2.804 0 1.006-.1 2.012.2 2.716-.3.503-.5 1.005-.4 1.81.1 0 .1.201.1.302-.1.503.6.2.5.704.2.503-.4.2-.4.503v.905c.5.301 1.498.2 2.298.2.899-.401 2.197-.502 2.796-1.206.5.201.9 0 1.2-.201 0-.302.299-.302.199-.704 0-.302-.2-.503-.1-.905V22.05c-.2-2.313 0-4.928-.3-7.24.9-.101 1.898-.101 2.598-.403.4-.503.4-1.207.5-1.911.199-.201.199-.604.199-1.006.2-.2.1-.704.1-1.106-.1-.603-.2-1.307-.8-1.408-.898-.201-1.997.603-2.996.302 0-1.107-.3-2.313 0-3.42a65.41 65.41 0 002.197-.603zm-3.796 4.827c.1.302.3.503.4.704.099 0 .199 0 .199.1 1.199.101 2.198-.1 3.097-.3 0 1.005-.3 1.709-.5 2.513-.7 0-1.498.302-1.998.201-.3.202-.4.503-.6.704 0 .403.1.503 0 .805-.199.1-.099.604-.199.805v1.508c.1.302-.1.302-.1.503v3.52c-.1.302.1.302.1.503v3.017c.1.302-.1.805.1.905-.1.402-.4 0-.8.1-.499.101-.898.403-1.497.403.1-.402.3-.603.3-1.106 0-.402-.4-.302-.5-.503.2-.604.6-1.106.699-1.81.2-.503.7-1.308.3-1.81-.5-.101-.5.301-.8.402 0 .1 0 .2-.1.2 0 .101 0 .202-.1.202-.2.1 0 .1 0 0s0-.201.1-.201c0-.1 0-.201.1-.201v-.302c.4-.604.7-1.207.8-2.011.2-.302.3-.704.4-1.006.199-.302.299-.905.1-1.207-.5 0-.8.302-.9.704-.3-.201.2-.402.1-.704.1-.201.2-.604.3-.805.2-.402.599-1.307 0-1.609-.4 0-.6.201-.7.503-.2.201-.4.402-.5.704-.399-.1-.099-.704-.199-1.106-.1-.503.1-.905 0-1.207-.6-.805-1.998-.1-3.196-.302-.1-.301-.2-1.005-.1-1.207.999-.1 2.497.201 3.196-.2 0-.101 0-.202.1-.202.1-.704-.3-1.006-.5-1.408.2-.804 0-2.011.1-3.017.2-.1.3-.402.5-.603.1-1.006.7-1.509.7-2.515-.3 0-.6-.1-.6.201-.3-.1-.4.503-.5.202-.1-.503.2-.604.3-1.006.6-.402 1.199-.805 1.898-1.207 1.698-.201 4.595-.402 6.094.201.1.604-.3.905-.2 1.509h-1.499c-1.098.2-1.998.704-2.996 1.005-.2.101-.3.302-.5.403 0 .402-.2.603-.3 1.005-.3 1.408-.1 2.615-.1 4.023z"/></svg><svg viewBox="0 0 47 81" id="flag" xmlns="http://www.w3.org/2000/svg"><path d="M7.766 3.862v38.52L47 23.071 7.766 3.862zM0 80.9V0h3.833v80.9H0z" fill="#63D1BB"/><path d="M3.833.1H0V81h3.833V.1z" fill="#231F20"/></svg><svg viewBox="0 0 33 38" id="icon-1" xmlns="http://www.w3.org/2000/svg"><path d="M16.5 38C25.575 38 33 30.645 33 21.656c-9.075 0-16.5 7.253-16.5 16.344zM4.744 16.65c0 2.554 2.062 4.495 4.537 4.495a4.54 4.54 0 002.578-.817v.306c0 2.554 2.063 4.495 4.538 4.495 2.578 0 4.537-2.043 4.537-4.495v-.306c.722.51 1.65.817 2.578.817 2.579 0 4.538-2.043 4.538-4.494 0-1.84-1.031-3.371-2.578-4.086 1.547-.715 2.578-2.248 2.578-4.087 0-2.553-2.063-4.494-4.538-4.494a4.54 4.54 0 00-2.578.817v-.306C20.934 1.94 18.872 0 16.397 0c-2.578 0-4.538 2.043-4.538 4.495V4.8a4.542 4.542 0 00-2.578-.817c-2.578 0-4.537 2.043-4.537 4.494 0 1.84 1.031 3.372 2.578 4.087-1.444.715-2.578 2.247-2.578 4.086zM16.5 7.969c2.578 0 4.538 2.043 4.538 4.494 0 2.554-2.063 4.495-4.538 4.495-2.578 0-4.537-2.043-4.537-4.495 0-2.451 1.959-4.494 4.537-4.494zM0 21.656C0 30.646 7.425 38 16.5 38c0-9.091-7.425-16.344-16.5-16.344z"/></svg><svg viewBox="0 0 35 34" id="icon-2" xmlns="http://www.w3.org/2000/svg"><path fill-rule="evenodd" clip-rule="evenodd" d="M24.852 1.586C19.963-.59 14.259-.59 9.269 1.982l7.638 5.54 7.945-5.936zM.306 13.953a16.044 16.044 0 000 6.232l4.176-3.165-4.176-3.067zm29.333 2.77l4.889-3.661c.611 2.374.611 4.947.102 7.32l-4.99-3.66zM9.37 32.056c4.89 2.473 10.899 2.671 15.991.099l-8.25-6.035-7.74 5.936zM1.732 9.698l6.314 4.55-1.731 1.485-5.398-3.957c.203-.693.509-1.386.815-2.078zm17.213 15.137l8.453 6.134c.306-.198.611-.396.815-.594.306-.198.611-.495.917-.791l-8.454-6.134-1.731 1.385zM4.075 6.137l7.536 5.441-1.833 1.385L2.75 7.82c.407-.594.815-1.188 1.324-1.682zm18.434 16.026l8.25 6.035c.51-.494.917-1.088 1.325-1.681l-7.843-5.739-1.732 1.386zM7.333 3.17l7.843 5.738-1.732 1.286-7.842-5.639c.305-.396.713-.693 1.12-.99a2.13 2.13 0 00.306-.197 2.13 2.13 0 01.305-.198zm18.741 16.225l7.13 5.144c.153-.346.306-.668.458-.99.153-.32.306-.642.459-.989l-6.213-4.55-1.834 1.385zM.917 22.362L26.889 2.674c.713.396 1.324.792 1.834 1.286L1.732 24.44c-.306-.693-.612-1.386-.815-2.079zm30.352-15.83c-.306-.395-.611-.791-.917-1.088L2.852 26.22c.204.494.51.89.815 1.187.102.198.305.396.407.494L31.778 7.127a2.645 2.645 0 01-.255-.297 2.645 2.645 0 00-.254-.297zM5.704 29.484L32.898 8.907c.408.593.713 1.286 1.019 1.978L7.435 30.87a11.655 11.655 0 01-1.731-1.385z"/></svg><svg viewBox="0 0 47 27" id="icon-3" xmlns="http://www.w3.org/2000/svg"><path fill-rule="evenodd" clip-rule="evenodd" d="M3.933 0h39.133C45.184 0 47 1.78 47 3.857v19.286C47 25.319 45.285 27 43.066 27H3.933C1.715 27 0 25.319 0 23.143V3.857C0 1.681 1.715 0 3.933 0zm-.907 2.77v21.955H43.57V2.77H3.026zm36.611 18.098H6.96V6.627h32.678v14.241zm-10.791-7.12c0-2.869-2.421-5.242-5.346-5.242-2.925 0-5.346 2.274-5.346 5.242 0 2.868 2.421 5.241 5.346 5.241 2.925 0 5.346-2.373 5.346-5.242z"/></svg><svg viewBox="0 0 55 23" id="icon-4" xmlns="http://www.w3.org/2000/svg"><path fill-rule="evenodd" clip-rule="evenodd" d="M28.41 4.065c4.65 0 8.897.694 12.537 1.685-1.113 1.785-1.921 3.668-2.022 5.65 0 2.182.707 4.066 1.92 5.85-3.74.991-7.987 1.685-12.536 1.685-2.932 0-5.46-.198-7.785-.595L13.649 23H0l5.864-6.147h8.695c-4.65-1.586-6.976-3.47-6.976-3.47V9.617s2.224-1.883 6.875-3.47H5.965L.101 0H13.75l6.875 4.66c2.224-.397 4.853-.595 7.785-.595zM42.463 11.5c0-1.586.708-3.173 2.022-4.759C50.955 8.922 55 11.5 55 11.5s-4.044 2.577-10.515 4.759c-1.314-1.587-2.022-3.173-2.022-4.76z"/></svg><svg viewBox="0 0 34 27" id="icon-5" xmlns="http://www.w3.org/2000/svg"><path d="M34 8.45C34 3.788 29.982 0 25.036 0A9.248 9.248 0 0017 4.662C15.558 1.942 12.467 0 8.964 0 4.018 0 0 3.788 0 8.45 0 17.288 15.146 27 17 27c1.958 0 17-9.615 17-18.55z"/></svg><svg viewBox="0 0 33 32" id="icon-6" xmlns="http://www.w3.org/2000/svg"><path d="M3.028 32h12.614V18.272H3.028V32zM31.385 8.691h-7.367c.505-.296 1.01-.493 1.413-.79 1.615-1.086 2.422-2.568 2.422-3.95 0-1.186-.605-2.173-1.413-2.865C25.633.396 24.523 0 23.413 0c-1.211 0-2.422.395-3.33 1.086-1.514.988-2.624 2.47-3.432 4.05 0 .099-.1.197-.1.197-.303-.592-.606-1.185-1.01-1.777-.706-.988-1.514-1.877-2.523-2.47C12.01.494 10.9 0 9.688 0c-1.21 0-2.321.494-3.23 1.284-.807.79-1.412 1.876-1.412 3.062 0 .691.202 1.481.605 2.173.606.888 1.413 1.58 2.624 2.172h-6.66C.706 8.691 0 9.383 0 10.271V16.1h15.541V8.69h1.918v7.41H33v-5.827c0-.89-.706-1.58-1.615-1.58zM8.881 6.42c-.606-.395-1.01-.79-1.211-1.087-.202-.395-.303-.691-.303-.987 0-.494.202-.988.706-1.482.404-.395 1.01-.691 1.615-.691.707 0 1.413.197 2.018.691a7.6 7.6 0 012.624 3.16c.303.692.606 1.383.808 2.075-3.129-.297-5.147-.988-6.257-1.68zm10.596-1.58c.606-.79 1.211-1.482 1.918-1.877.706-.494 1.412-.691 2.018-.691.605 0 1.11.197 1.514.493.403.297.605.692.605 1.186 0 .493-.303 1.284-1.514 2.074-1.11.79-3.128 1.679-6.156 2.271a10.88 10.88 0 011.615-3.456zM17.46 32h12.614V18.272H17.46V32z"/></svg><svg viewBox="0 0 21 18" id="icon-cart" xmlns="http://www.w3.org/2000/svg"><path d="M20.188 6.857h-3.55L13.188.381C12.985 0 12.58-.095 12.174.095s-.507.572-.304.953l3.145 5.81H5.783l3.145-5.81c.202-.381 0-.762-.305-.953-.406-.19-.811 0-1.014.286l-3.45 6.476H.812c-.406 0-.812.286-.812.762 0 .381.304.762.812.762h.202l.914 2.857c-.203.095-.305.286-.305.572 0 .38.305.666.71.666L4.058 18h12.884l1.725-5.524c.405 0 .71-.286.71-.667 0-.19-.102-.476-.304-.57l.912-2.858h.203c.406 0 .812-.286.812-.762 0-.476-.406-.762-.812-.762zm-4.565 9.62H5.073L3.854 12.38h13.087l-1.319 4.095zm1.623-5.525H3.348l-.812-2.666h15.522l-.812 2.666z"/></svg><svg viewBox="0 0 21 20" id="icon-close-menu" xmlns="http://www.w3.org/2000/svg"><path d="M21 1.366L19.566 0 10.55 8.585 1.434 0 0 1.366l9.015 8.683L0 18.634 1.434 20l9.117-8.585L19.566 20 21 18.634l-9.015-8.585L21 1.366z"/></svg><svg viewBox="0 0 32 21" id="icon-email" xmlns="http://www.w3.org/2000/svg"><path d="M28 0H4C1.8 0 0 1.8 0 4v13c0 2.2 1.8 4 4 4h24c2.2 0 4-1.8 4-4V4c0-2.2-1.8-4-4-4zM2 5.3l7 5.3-7 5.3V5.3zM30 17c0 1.1-.9 2-2 2H4c-1.1 0-2-.9-2-2l7.8-5.9 4.4 3.3c.5.4 1.2.6 1.8.6.6 0 1.3-.2 1.8-.6l4.4-3.3L30 17zm0-1.2l-7-5.3 7-5.3v10.6zm-12.8-2.2c-.4.3-.8.4-1.2.4-.4 0-.9-.1-1.2-.4l-4.1-3.1-.8-.6L2 4c0-1.1.9-2 2-2h24c1.1 0 2 .9 2 2l-12.8 9.6z"/></svg><svg viewBox="0 0 20 14" id="icon-open-menu" xmlns="http://www.w3.org/2000/svg"><path fill-rule="evenodd" clip-rule="evenodd" d="M20 0H0v2h20V0zm0 6H0v2h20V6zM0 12h20v2H0v-2z"/></svg><svg viewBox="0 0 25 24" id="icon-phone" xmlns="http://www.w3.org/2000/svg"><path fill-rule="evenodd" clip-rule="evenodd" d="M23.488 12.148c0-5.926-4.94-10.667-10.887-10.667V0C19.456 0 25 5.432 25 12.148h-1.512zM16.33 24h1.108c1.21-.395 3.327-1.778 3.63-3.062.1-.592-.202-1.58-.605-2.172-.3-.442-1.105-.719-1.787-.954a10.43 10.43 0 01-.633-.232c-.403-.197-.806-.395-1.31-.493a13.557 13.557 0 01-.314-.083c-.364-.099-.79-.214-1.097-.214-.807 0-1.434.615-2.002 1.17-.283.279-.552.542-.821.707-3.427-1.778-5.948-4.544-7.56-8.198.172-.38.566-.688.975-1.008.55-.43 1.127-.881 1.242-1.56.075-.585-.127-1.333-.319-2.043a18.728 18.728 0 01-.185-.722c-.034-.135-.069-.28-.104-.428-.172-.717-.368-1.533-.702-1.942-.403-.593-1.512-1.087-2.218-1.087-.907.099-1.915.89-2.52 1.58C.504 3.852.1 4.445 0 5.333v1.383c.403 5.037 2.52 8.692 5.141 11.556 2.621 2.864 6.25 5.135 11.19 5.728zM12.6 9.185v1.58c.806 0 1.411.593 1.411 1.383h1.613c0-1.58-1.31-2.963-3.024-2.963zm6.149 2.963c0-3.358-2.823-6.024-6.15-6.024h.102V4.642c4.234 0 7.66 3.358 7.66 7.506H18.75z"/></svg><svg viewBox="0 0 18 18" id="icon-search" xmlns="http://www.w3.org/2000/svg"><path d="M17.693 16.057l-3.477-3.477c1.023-1.33 1.534-2.966 1.534-4.705C15.75 3.477 12.273 0 7.875 0S0 3.477 0 7.875s3.477 7.875 7.875 7.875c1.739 0 3.375-.614 4.704-1.534l3.478 3.477c.204.205.409.307.818.307.614 0 1.125-.511 1.125-1.125 0-.204-.102-.511-.307-.818zM2.25 7.875c0-3.068 2.557-5.625 5.625-5.625S13.5 4.807 13.5 7.875 10.943 13.5 7.875 13.5 2.25 10.943 2.25 7.875z"/></svg><svg viewBox="0 0 32 22" id="icon-video" xmlns="http://www.w3.org/2000/svg"><path d="M26 10l6-4v16l-6-4v-8zm-2 0v8c0 2.2-1.8 4-4 4H4c-2.2 0-4-1.8-4-4v-8c0-2.2 1.8-4 4-4h10c0-1.1.9-2 2-2V2H5c-.6 0-1-.4-1-1s.4-1 1-1h12c.6 0 1 .4 1 1v3c1.1 0 2 .9 2 2 2.2 0 4 1.8 4 4zm-12 0H4v8h8v-8zm8 1c0-.6-.4-1-1-1h-4c-.6 0-1 .4-1 1s.4 1 1 1h4c.6 0 1-.4 1-1z"/></svg><svg viewBox="0 0 101 77" id="icon-video-play" xmlns="http://www.w3.org/2000/svg"><path d="M97 18.1s-.9-7-3.8-10.1c-3.6-4-7.7-4.1-9.5-4.3-13.3-1-33.3-1-33.3-1h-.1s-20 0-33.3 1c-1.9.2-5.9.3-9.5 4.3-2.8 3.1-3.8 10.1-3.8 10.1s-.9 8.2-.9 16.4v7.7c0 8.2.9 16.4.9 16.4s.9 7 3.8 10.1c3.6 4 8.4 3.9 10.5 4.3 7.6.8 32.4 1 32.4 1s20 0 33.3-1c1.9-.2 5.9-.3 9.5-4.3C96 65.6 97 58.6 97 58.6s.9-8.2.9-16.4v-7.7c0-8.2-.9-16.4-.9-16.4z" fill="#63D1BB"/><path d="M50.3 76.8c-1 0-25-.3-32.6-1h-.2c-.3-.1-.7-.1-1.1-.2-2.5-.3-7.2-.9-10.8-5C2.2 67 1.2 59.8 1.1 59c0-.3-1-8.5-1-16.7v-7.7c0-8.3.9-16.4.9-16.7v-.1c.1-.8 1.2-7.9 4.5-11.6 4-4.4 8.5-4.9 10.7-5.1.2 0 .4 0 .5-.1h.1c13.3-1 33.3-1 33.5-1h.1c.2 0 20.2 0 33.5 1h.1c.2 0 .3 0 .5.1 2.2.2 6.7.7 10.7 5.1 3.4 3.6 4.4 10.8 4.5 11.6 0 .3 1 8.5 1 16.8v7.7c0 8.3-.9 16.4-1 16.7v.1c-.1.8-1.2 8-4.5 11.6-4 4.4-8.5 4.9-10.7 5.1-.2 0-.4 0-.5.1h-.1c-13.3.9-33.4.9-33.6.9zm-31.9-6.4c7.5.7 31.2 1 32 1 .7 0 20.1 0 33-1 .2 0 .4 0 .6-.1 1.8-.2 4.6-.5 7.2-3.3 1.8-2 2.9-6.9 3.1-8.6.1-.5.9-8.4.9-16.1v-7.7c0-7.8-.9-15.6-1-16.1-.3-2.4-1.4-6.8-3.1-8.5-2.6-2.9-5.4-3.1-7.2-3.3-.2 0-.4 0-.6-.1-13.1-1-32.8-1-33-1h-.1c-.2 0-20 0-33 1-.2 0-.4 0-.6.1-1.8.2-4.6.5-7.2 3.3-1.8 2-2.9 6.9-3.1 8.6-.1.6-.9 8.4-.9 16.1v7.7c0 7.7.9 15.6.9 16.1.3 2.4 1.4 6.8 3.1 8.5 2.3 2.6 5.3 3 7.5 3.3.6-.1 1 0 1.5.1z" fill="#fff"/><path d="M38.4 20.5v35.7l29.8-17.8-29.8-17.9z" fill="#fff"/></svg><svg viewBox="0 0 23 28" id="insta" xmlns="http://www.w3.org/2000/svg"><path d="M23 15.585c0-2.378-.316-4.755-.316-7.033 0-.793-.105-1.486-.21-2.278-.105-.298-.105-.694-.21-1.09-.316-.198-.211-.594-.527-.792-.42-.199-1.262-.1-1.789-.199-.736 0-1.367-.099-1.999-.198-2-.099-4.209-.099-6.313-.099-2.105 0-4.21-.099-5.998-.396H3.323c-.105 0-.105.1-.21.1-.632 0-1.158.197-1.684.296-.21.1-.421.198-.737.297-.105.199-.526.1-.631.397-.21.198.21.495 0 .594v.891c.21.1 0 .595.105.793v.99c0 1.288.105 2.378.105 3.666.526 2.773.421 6.438.105 9.31.21.595.421 1.09.527 1.685.315.495.315 1.09.736 1.486.526.198 1.263.198 2 .198.42.099.736.297 1.157.297 2.946-.198 5.787-.198 8.839-.198 2.841.198 6.103.198 8.734-.198.21-.1.105-.495.21-.793-.105-.396.21-.396.21-.792.211-2.08.211-4.458.211-6.934zM9.32 9.443a10.343 10.343 0 012.526-.297c.737.1 1.368.297 2 .496.105.198-.211.495.21.693.105 0 .105 0 .21.099.421 0 .842.198 1.158.396.526.1.526.495 1.157.396-.105.198-.105.496-.105.793.316 1.188.526 2.774.316 4.26-.21.197-.21.395-.316.693-.316.297-.526.792-.842 1.09a1.234 1.234 0 01-.526.495c-.105.198-.21.495-.526.495-.316.198-.631 0-.842-.1-.42.199-.947.298-1.263.595l-2.525-.297c-.21-.1-.526-.297-.842-.297a2.317 2.317 0 00-.842-.495c-.105-.1-.315-.1-.526-.199-.21 0-.21-.198-.526-.198-.105-.396-.42-.594-.526-1.09-.21-.297-.316-.792-.526-1.188 0-1.387.105-2.675.42-3.764.316-.595.843-1.09 1.158-1.684.21 0 .421-.1.421-.297.316.099.421-.1.737-.1.21 0 .21-.296.42-.495zM7.533 6.77c-.105-.297-.105-.694-.105-1.09 0-.297.315-.297.315-.495 0-.1-.105-.1-.21-.1.105-.098.736-.098.842 0 .105.496-.421.496-.527.694 0 .198.316 0 .527.1 0 .89-.106 1.485 0 2.179h-.527c0 .198.21.198.527.198-.106.297.105.396.105.594-.21.198-.737 0-1.158.1 0-.595.316-1.388.21-2.18zm-.737-1.585c.105 0 .105 0 .21.099.211.297 0 .693-.105.892-.21-.199 0-.694-.105-.991zm.21 1.783c-.105-.1-.21-.198-.21-.495.21.099.21.297.21.495zm0 1.387c-.105.099-.105 0-.105-.198.106-.1.106.099.106.198zm-.21.198c.21 0 .105.198.21.198 0 .198-.315.198-.42.1.105-.1.21-.2.21-.298zm-2.42-1.189c0-.099 0-.198-.105-.198-.105-.693.105-1.387 0-1.981.315-.198.842 0 1.157-.1v1.09c-.105.1-.21.1-.42.1-.106.297.315.099.42.297 0 .891-.105 1.783.21 2.377-.63-.099-.946.1-1.472.1.105-.595 0-1.388.526-1.586 0-.099-.316 0-.316-.099zm-.526 0c-.21 0-.21-.495-.105-.594.315 0 .21.495.105.594zm-.21.99c.105-.296 0-.296.105-.693.21 0 .21.793-.106.694zm.21-2.08c-.316.1-.316-.297-.21-.396.315 0 .42.298.21.397zm0-1.089c0 .198-.105.198-.105.297-.21 0-.106-.198-.21-.198.104-.099.21-.099.315-.099zM3.64 8.85c.105 0 .105.297-.106.198.105 0 .105-.099.105-.198zm-.737-3.665c0 .297-.421.297-.421 0h.42zm-1.052.099c0 .198-.316.198-.421.396-.21-.198.105-.495.42-.396zm-.421.693c.21-.198.526-.396.736-.594 0-.099.106-.099.106-.198h.21c.105.396-.316.297-.316.495 0 .1-.105.1-.105.198 0 .298.105.595.105.99-.315 0-.315.298-.631.199 0-.396-.21-.594-.105-1.09zm.105 3.27V7.66c.21-.198.42-.396.631-.495.316.495.21 1.387.526 1.882-.42.1-.841.1-1.157.198zm19.15 10.993c-.105.99-.21 1.98-.42 2.773-3.052.1-6.314 0-9.366.198-.21 0-.316 0-.21-.198-.316 0-.316.198-.527.198.21-.297.421-.891.21-1.288-.84 0-.84.793-1.157 1.288-.736-.099-1.157.1-1.894.1.21-.694.737-.991.947-1.685-.42-.495-1.052.1-1.262.496-.21.495-.632.792-.842 1.287H5.112c.21-.495.526-.891.841-1.386.21-.496.632-.694.737-1.387-.21-.297-.42 0-.737 0-.105.198-.315.297-.42.495-.211.396-.527.694-.737 1.09-.21.198-.316 0-.526.198-.421.297-.632.693-1.052.99-.21-.099 0-.396.21-.396 0-.198-.105-.495.105-.594a2.38 2.38 0 01.421-.892c.105-.693.526-1.188.737-1.882-.632.1-.737.595-1.053.99-.21.397-.526.793-.736 1.288-.21-.098 0-.594-.105-.792.105-.594.315-1.09.42-1.684a1.78 1.78 0 00.211-.792c.21-.198 0-.595-.105-.793-.21 0-.421.1-.526.297-.21 0-.21.496-.316.297 0-2.575-.526-4.754-.526-7.33 0-.297-.21-.396-.21-.693 1.683 0 3.261.099 5.05.198-.105.1-.21.297-.315.396-.106.1-.21.198-.421.297-.632 1.684-1.053 3.963-.632 6.142.21.594.632.99 1.053 1.387.947.495 1.683 1.09 2.63 1.684 1.789.396 3.999.396 5.788 0 .21-.1.526-.198.736-.396 1.473-1.19 2.947-2.477 3.157-4.854V13.9c-.21-1.585-.737-2.873-1.789-3.566.316-.198 1.158 0 1.789.099h.736c.421 0 .948-.1 1.474 0 .105.198.105.495.21.792-.105 1.684-.21 3.27-.21 5.052.105.496.105.99.21 1.387-.21.793-.316 1.684-.526 2.576zm.42-11.095c-.63-.099-1.262-.297-1.998-.396.105-.297.841 0 1.052-.198.42-.198.316-.892.316-1.486 0-.297.105-.594.105-1.09-.421-.99-1.894-.396-3.052-.495-.21.694-.526 1.783-.315 2.675.21.495 1.052.297 1.578.495-.105.297-.737.099-1.052.099-.316-.1-.737-.1-1.053-.198-2.42.099-4.524 0-6.84.198.106-1.189.106-2.476-.104-3.566h3.261c-.315.396-.947.495-1.367.792-.421.199-.947.496-1.158.892.21.099.526-.198.842-.396.42-.1.526-.397.842-.496.42-.396 1.157-.594 1.789-.891.42 0 .736 0 1.052.099 1.368 0 2.63.099 3.998.099.632.1 1.579.1 2.105.297l.316.892c-.106.99-.316 1.783-.316 2.674zM14.898 5.48c.105-.099 0-.099 0 0zm0 0c-.527.198-1.053.297-1.474.694.527-.199 1.158-.298 1.474-.694zm1.157.594c.105-.099 0-.099 0 0zm-1.894.892c.737-.198 1.263-.594 1.789-.892-.421 0-.631.298-1.052.397-.106.198-.527.198-.737.495zm-.737-.792c-.105 0 .106.099 0 0zm-.63.594c.104-.1 0-.1 0 0zm-.106.099c.105 0 .105-.1 0 0 0-.1 0-.1 0 0zm-.105 0c.105 0 .105 0 0 0zm-.842.594c.316-.099.631-.297.842-.594-.316.198-.632.396-.842.594zm2.42.99c.526 0 .737-.395 1.263-.494.315-.298.841-.397 1.052-.793-.631 0-.842.396-1.263.495-.315.397-.841.496-1.052.793zm-2.42-.99c-.316 0 0 .297 0 0zm-.631.396c.105 0 .21 0 0 0zm3.051.595c-.21.099 0 .099 0 0zm-1.263 1.783c-.21-.198-.736-.198-1.052-.396-.736 0-1.263.099-1.789.198-.315.198-.631.297-.947.495-.316.198-.42.396-.842.495-.21.198-.42.496-.736.595 0 .198-.21.297-.316.396-.105.099-.105.297-.21.396 0 .1 0 .297-.106.297.106 1.486.316 2.873.737 4.16.316.595 1.052.793 1.473 1.288.632.297 1.368.397 2.21.496.316-.1.631-.1.947-.1 1.263-.198 2.21-.693 2.946-1.386.106-.297.316-.496.526-.694-.315-.693.316-1.09.526-1.584 0-1.288-.21-2.477-.63-3.368-.316-.595-.948-.793-1.474-1.09-.105 0-.21 0-.21-.1-.21-.098-.737-.197-1.053-.098zm-3.577 4.358c-.106-.099-.106-.198-.21-.396.315-.099.21.198.21.396zm.105.298c0-.1.105 0 0 0 0 .198 0 .099 0 0zm.42-2.08c0-.1.106 0 0 0 .106.098 0 .098 0 0zm1.79-2.08c-.21.296 0 .594.105.792-.316 0-.631-.793-.105-.793zm.42 3.862c.106 0 0 .1 0 0zm.737 2.873c0-.1.105 0 .21 0 0 .099-.21.099-.21 0zm2.315-2.476c-.21-.1-.105.198-.42.198.104-.198.104-.297.21-.496.21 0 .315.1.21.298zm-1.157-3.765c.21.1.42.198.63.397.106.198.211.396.422.495.105.792.21 1.486.21 2.377-.315.1-.42.298-.736.397-.842 0-1.473-.199-2-.496-.21-.297-.42-.495-.526-.792v-1.09c.21-.198.316-.396.526-.594.21-.1.527-.198.527-.595 0-.099-.106-.099-.106-.198.21 0 .21.198.421.198.21 0 .316-.198.632-.099z"/></svg><svg viewBox="0 0 40 62" id="lamp" xmlns="http://www.w3.org/2000/svg"><path fill-rule="evenodd" clip-rule="evenodd" d="M22.344 2.19h11.671L40 27.566c-.798-.498-1.596-.995-2.593-.995-1.266 0-2.151.758-2.842 1.35l-.051.043c-.599.597-1.098.896-1.397.896-.2 0-.399-.1-.598-.2-.3-.099-.599-.298-.898-.597l-.167-.144c-.66-.573-1.44-1.249-2.726-1.249-1.265 0-2.15.758-2.841 1.35l-.052.043c-.598.498-1.097.797-1.396.797-.3 0-.798-.299-1.496-.797l-.051-.043c-.691-.592-1.577-1.35-2.842-1.35-.3 0-.599 0-.898.1-.761.168-1.308.624-1.76 1a14.1 14.1 0 01-.235.194c-.234.116-.433.267-.598.392a2.212 2.212 0 01-.3.205 7.118 7.118 0 00-.299.108c-.138.053-.238.091-.3.091-.298 0-.797-.299-1.495-.796l-.051-.044c-.691-.591-1.577-1.35-2.842-1.35-1.078 0-1.88.62-2.522 1.114-.13.1-.253.196-.371.28-.698.497-1.197.796-1.496.796-.2 0-.698-.199-1.397-.796l-.167-.144c-.66-.574-1.439-1.25-2.725-1.25-.998 0-1.796.498-2.594.996L6.085 2.189h11.67C17.756.995 18.754 0 20.05 0s2.294.995 2.294 2.19zm-7.182 35.527c-.3.995-.2 2.19 0 3.582.225 1.169.593 2.499.992 3.946.486 1.758 1.019 3.688 1.402 5.708h5.087c.406-2.083.98-4.099 1.508-5.95.38-1.332.736-2.579.986-3.704.3-1.393.3-2.687 0-3.582-.3-.896-.898-1.593-1.995-2.29h-5.985c-1.197.697-1.796 1.394-1.995 2.29zm11.77 19.904H13.168c-1.297 0-2.294.995-2.294 2.19V62h18.354v-2.19c0-1.194-.998-2.189-2.294-2.189zm-3.49-4.478h-6.883c-.699 0-1.098.497-1.098 1.094 0 .597.5 1.095 1.098 1.095h6.883c.698 0 1.097-.498 1.097-1.095.1-.597-.4-1.094-1.098-1.094zM19.75 28.85c.137-.052.237-.09.299-.09.2 0 .598.298 1.097.696v3.583h-2.294v-3.682c.1-.05.2-.124.3-.2.099-.074.199-.148.298-.198.115-.038.215-.076.3-.109z"/></svg><svg viewBox="0 0 67 101" id="map-pin" xmlns="http://www.w3.org/2000/svg"><path d="M57.153 10.126c-13.096-12.202-34.211-12.202-47.307 0-13.095 12.203-13.095 31.945 0 44.147 0 0 23.653 21.627 23.653 46.627 0-25 23.654-46.627 23.654-46.627 13.095-12.103 13.095-31.944 0-44.147z" fill="#fff"/><path d="M47.712 46.139c-.61-3.274.101-6.846 0-10.219-.102-3.77-.71-7.44-.71-11.11 0-2.977.507-6.151-.508-9.028.101-.298.101-.695.203-.993.304-1.488-4.67-.694-5.38.596-.508.396-.711.893-.508 1.29.102.099.102.198.102.396-.914 4.464-2.234 8.73-3.757 13.095a257.52 257.52 0 01-1.827 4.862 67.034 67.034 0 01-2.335-4.663c-1.928-4.762-3.756-9.623-6.09-14.187.304-2.083-4.569-1.885-5.482 0-1.117 2.381-1.016 4.762-.61 7.242.407 2.877.508 5.655.508 8.532.102 5.556.508 11.012.61 16.568-.508.595-.61 1.19-.102 1.884.203.298.507.496.812.794 1.32.992 4.974.199 4.974-1.786 0-5.754-.406-11.408-.61-17.162v-1.687c.102.199.204.397.204.596.914 2.182 1.827 4.365 3.147 6.448 1.218 2.083 1.827 4.266 2.538 6.448-.305.298-.406.596-.305.992-.101.298.102.397.406.496.914.794 2.64.397 3.553 0 .406-.198.813-.396 1.218-.595.508-.297 1.219-.992 1.016-1.587 0-.1-.102-.298-.102-.397.71-1.786 1.015-3.571 1.421-5.456.406-1.984 1.117-3.87 1.828-5.754.101.893.101 1.686.203 2.58.304 3.57 0 7.043 0 10.614 0 1.19.101 2.282.304 3.373.102.496.508 2.48.406 2.58-.913.793-.609 1.785.508 1.984 1.32.297 2.944-.1 3.959-.992 1.624-1.39.812-3.77.406-5.754z" fill="#6BC6B3"/></svg><svg viewBox="0 0 50 26" id="next" xmlns="http://www.w3.org/2000/svg"><path d="M0 11h42.3l-8.1-8.2L37 0l13 13-13 13-2.8-2.8 8.1-8.2H0v-4z"/></svg><svg viewBox="0 0 50 26" id="previous" xmlns="http://www.w3.org/2000/svg"><path d="M50 11H7.7l8.1-8.2L13 0 0 13l13 13 2.8-2.8L7.7 15H50v-4z"/></svg><svg fill="none" viewBox="0 0 20 14" id="toggle-closed" xmlns="http://www.w3.org/2000/svg"><path d="M20 0H0v2h20V0zM20 6H0v2h20V6zM20 12H0v2h20v-2z" fill="#231F20"/></svg><svg fill="none" viewBox="0 0 21 20" id="toggle-opened" xmlns="http://www.w3.org/2000/svg"><path d="M21 1.366L19.566 0 10.55 8.585 1.434 0 0 1.366l9.015 8.683L0 18.634 1.434 20l9.117-8.585L19.566 20 21 18.634l-9.015-8.585L21 1.366z" fill="#000"/></svg><svg viewBox="0 0 60 60" id="toy" xmlns="http://www.w3.org/2000/svg"><path d="M0 43.993L27.4 60V36.544L0 20.436v23.557zm51.3-31.51V15c0 1.812-3.5 3.322-7.7 3.322-4.3 0-7.7-1.51-7.7-3.322v-4.127c.3 1.71 3.6 3.12 7.7 3.12 4.3 0 7.7-1.51 7.7-3.322S47.8 7.35 43.6 7.35h-1l-5-2.92v3.12c0 1.812-3.5 3.323-7.7 3.323-2.7 0-5-.604-6.4-1.51a4.36 4.36 0 00-.7-.605c-.4-.402-.6-.805-.6-1.208V4.53l-4.8 2.82h-1.1c-4.3 0-7.7 1.51-7.7 3.322s3.5 3.322 7.7 3.322c4.1 0 7.4-1.41 7.7-3.12V15c0 1.812-3.5 3.322-7.7 3.322-4.3 0-7.7-1.51-7.7-3.322v-2.416l-6 3.523 27.5 16.108 27.4-16.007-6.2-3.725zM37.7 22.752c0 1.812-3.5 3.322-7.7 3.322-4.3 0-7.7-1.51-7.7-3.322v-4.128c.3 1.712 3.6 3.121 7.7 3.121s7.4-1.41 7.7-3.12v4.127zm-5.1 13.993V60L60 43.993V20.738L32.6 36.745zm-2.7-30.1c4.3 0 7.7-1.51 7.7-3.323C37.6 1.51 34.1 0 29.9 0c-4.3 0-7.7 1.51-7.7 3.322s3.4 3.322 7.7 3.322z"/></svg><svg viewBox="0 0 23 28" id="twitter" xmlns="http://www.w3.org/2000/svg"><path d="M22.957 8.742c-.194-.404-.874-.303-1.36-.404h-1.07c.098-.404.292-.606.487-1.01.097-.404.291-.707.194-1.313l.292-.606c.097-.1.194-.505.097-.707-.097-.202-.292-.202-.583-.202-.097 0-.195.101-.195.101-.388.404-.777 1.01-1.263 1.414h-.097c-.097 0 0 0-.097.101s-.292.202-.389.202c-.291.202-.486.404-.874.505-.486-.202-1.166-.303-1.846-.404-1.167.101-2.235.202-2.916.707-.874.303-1.457 1.01-2.04 1.616 0 .303-.292.404-.389.707 0 0 0 .102-.097.102 0 .202-.097.303-.097.505 0 .1.194.404 0 .505-.777-.101-1.458-.606-2.04-1.01-.68-.405-1.458-.607-2.041-1.112-.68-.303-1.263-.808-1.75-1.313-.194-.303-.485-.505-.68-.909-.388-.202-.194-.909-.68-.909-.291 0-.291.202-.388.404-.097.202-.389.202-.389.505 0 0 0 .101-.097.101-.195 1.111-.486 2.02-.486 3.334.097.404.292.707.583 1.01-.389.1-.68.202-.875.505-.097 1.11.39 1.616.68 2.323.098.404.39.707.584 1.01 0 .202.194.303.291.404 0 .101.097.101.097.202s.292.202.098.202c-.39.101-.972.101-1.264.404a2.154 2.154 0 000 1.111c0 .202.292.303.292.505.486.404 1.069.707 1.555 1.111.583.202 1.166.303 1.846.404-.097.303-.292.607-.583.707-.778.404-1.75.506-2.624.708-.583 0-.972.202-1.555.202-.291.1-.874.1-1.068.202-.098.1-.098.1-.195.202-.097.404.097.707.389.909 0 .303.194.303.389.404.097.202.291.303.388.404.486.505 1.263.808 1.847 1.11.777.203 1.554.405 2.429.506.874.101 1.846.101 2.72.202h.972c.486.101 1.166.101 1.846.101.097-.101.292-.101.486-.101.486-.303 1.166-.404 1.555-.707.583-.202.972-.606 1.555-.91.874-.807 1.846-1.312 2.429-2.423.194-.202.389-.405.389-.708.291-.201.388-.505.582-.707.39-.404.68-.909.972-1.414.292-.505.583-1.11.875-1.616 0-.404.291-.505.291-.909.195-.202.195-.707.389-.909 0-.303 0-.404.097-.606 0-1.313 0-2.424-.291-3.434.583-.202 1.166-.303 1.554-.607.778.304 1.263-.1 1.07-.707zm-3.304 4.04c-.194.91-.583 1.415-.971 2.021.097.404-.098.505-.098.91-.194.302-.291.706-.388 1.01-.195.302-.292.605-.486.908-.389.505-.777 1.111-1.166 1.616-.389.607-.875 1.01-1.263 1.516-.389.505-.875.909-1.36 1.313-.486.202-.875.404-1.264.707-.194.1-.486.202-.68.303-.194.1-.486.1-.68.303-1.069.1-2.235.202-3.498.1-.972-.1-2.04-.201-2.915-.403s-1.458-.707-2.235-1.01c.194-.202.583-.202.972-.202 0-.202.388 0 .388-.101.292.1.292-.101.486-.101.583-.202 1.166-.303 1.652-.606.291-.101.389-.404.68-.606 0-.202.097-.303.194-.404 0-.303.195-.405.098-.809.097-.201.291-.303.291-.707-.097-.1-.097-.303-.291-.404 0-.202-.39-.1-.39-.202-.29 0-.388 0-.582-.1-.194 0-.486.1-.486-.102-.777 0-1.263-.404-1.846-.707.389-.303.972-.404 1.263-.707.486-.1 1.069-.1 1.069-.707 0-.707-.777-.707-1.263-.808-.778-.707-1.166-1.717-1.75-2.525.195-.202.584-.202.68-.404.487.1.487-.303.681-.505 0-.505-.291-.606-.583-.808-.291-.202-.486-.505-.68-.707 0-.809 0-1.718.097-2.425.097 0 .097 0 .097.101.195.404.583.808.778 1.212.485.404.874.91 1.554 1.112.486.404 1.07.606 1.555 1.01.583.303 1.166.606 1.652.909.68.202 1.069.707 1.943.606l.583-.303c.292-.505-.097-1.111.097-1.616.292-.707.778-1.01 1.264-1.516.291-.202.583-.303.777-.505.291-.1.68-.202.972-.404.388 0 .68-.1.971-.1h1.264c.194.1.485.1.68.1.194.101.388.303.68.404.777.707 1.263 1.718 1.36 3.03 0 .304.097.708.097 1.314zm.292-5.656c-.097.303-.194.707-.583.808 0-.1-.097-.1-.097-.202 0-.202.194-.202.291-.303.097-.1.195-.303.389-.303 0-.1.097 0 0 0zm-5.344 3.03c.194.102.291.304.485.405.098.202.292.303.583.404 0-.202.292 0 .39-.202.194 0 .194-.202.29-.303 0-.505-.096-1.01-.388-1.314-.68-.505-1.652 0-1.36 1.01z"/></svg><svg viewBox="0 0 320 6" id="zigzag-gray" xmlns="http://www.w3.org/2000/svg"><path d="M320 6c-2.504 0-3.812-1.2-4.87-2.165-.946-.861-1.641-1.487-3.116-1.487-1.503 0-2.171.626-3.117 1.487C307.84 4.8 306.532 6 304.028 6c-2.505 0-3.812-1.2-4.87-2.165-.946-.861-1.641-1.487-3.116-1.487s-2.171.626-3.117 1.487C291.868 4.8 290.56 6 288.056 6c-2.505 0-3.813-1.2-4.87-2.165-.946-.861-1.642-1.487-3.116-1.487-1.503 0-2.171.626-3.117 1.487C275.896 4.8 274.588 6 272.083 6c-2.504 0-3.812-1.2-4.869-2.165-.946-.861-1.642-1.487-3.117-1.487-1.502 0-2.17.626-3.116 1.487C259.812 4.8 258.504 6 256 6s-3.812-1.2-4.87-2.165c-.946-.861-1.641-1.487-3.116-1.487-1.503 0-2.171.626-3.117 1.487C243.84 4.8 242.532 6 240.028 6c-2.505 0-3.812-1.2-4.87-2.165-.946-.861-1.641-1.487-3.116-1.487-1.503 0-2.171.626-3.117 1.487C227.812 4.8 226.504 6 224 6s-3.812-1.2-4.87-2.165c-.946-.861-1.641-1.487-3.116-1.487-1.503 0-2.171.626-3.117 1.487C211.84 4.8 210.532 6 208.028 6c-2.505 0-3.812-1.2-4.87-2.165-.946-.861-1.641-1.487-3.116-1.487s-2.171.626-3.117 1.487C195.84 4.8 194.504 6 192 6s-3.812-1.2-4.87-2.165c-.946-.861-1.641-1.487-3.116-1.487-1.503 0-2.171.626-3.117 1.487C179.84 4.8 178.532 6 176.028 6c-2.505 0-3.812-1.2-4.87-2.165-.946-.861-1.641-1.487-3.116-1.487-1.503 0-2.171.626-3.117 1.487C163.868 4.8 162.56 6 160.056 6c-2.505 0-3.813-1.2-4.87-2.165-.946-.861-1.642-1.487-3.116-1.487-1.475 0-2.171.626-3.117 1.487C147.896 4.8 146.588 6 144.083 6c-2.504 0-3.812-1.2-4.869-2.165-.946-.861-1.642-1.487-3.117-1.487-1.502 0-2.17.626-3.116 1.487C131.923 4.8 130.616 6 128.111 6c-2.504 0-3.812-1.2-4.869-2.165-.946-.861-1.642-1.487-3.117-1.487-1.502 0-2.17.626-3.116 1.487C115.951 4.8 114.643 6 112.139 6s-3.812-1.2-4.869-2.165c-.947-.861-1.642-1.487-3.117-1.487-1.503 0-2.17.626-3.116 1.487C99.979 4.8 98.671 6 96.167 6s-3.812-1.2-4.87-2.165c-.946-.861-1.641-1.487-3.116-1.487s-2.17.626-3.117 1.487C84.007 4.8 82.7 6 80.194 6c-2.504 0-3.811-1.2-4.869-2.165-.946-.861-1.642-1.487-3.116-1.487-1.503 0-2.17.626-3.117 1.487C68.035 4.8 66.727 6 64.222 6c-2.504 0-3.812-1.2-4.869-2.165-.946-.861-1.642-1.487-3.117-1.487-1.502 0-2.17.626-3.116 1.487C52.063 4.8 50.755 6 48.25 6c-2.504 0-3.812-1.2-4.87-2.165-.945-.861-1.64-1.487-3.116-1.487-1.502 0-2.17.626-3.116 1.487C35.84 4.8 34.504 6 32 6c-2.504 0-3.812-1.2-4.87-2.165-.946-.861-1.641-1.487-3.116-1.487-1.503 0-2.17.626-3.117 1.487C19.84 4.8 18.532 6 16.027 6c-2.504 0-3.811-1.2-4.869-2.165-.974-.861-1.67-1.487-3.144-1.487-1.503 0-2.17.626-3.117 1.487C3.812 4.8 2.504 6 0 6V3.652c1.503 0 2.17-.626 3.117-1.487C4.174 1.2 5.482 0 8.014 0c2.504 0 3.812 1.2 4.87 2.165.946.861 1.641 1.487 3.116 1.487 1.503 0 2.17-.626 3.116-1.487C20.174 1.2 21.51 0 24.014 0c2.504 0 3.812 1.2 4.87 2.165.946.861 1.641 1.487 3.116 1.487 1.503 0 2.17-.626 3.117-1.487C36.174 1.2 37.482 0 39.986 0c2.503 0 3.811 1.2 4.869 2.165.946.861 1.641 1.487 3.116 1.487 1.503 0 2.17-.626 3.117-1.487C52.146 1.2 53.454 0 55.959 0c2.504 0 3.811 1.2 4.869 2.165.946.861 1.642 1.487 3.116 1.487 1.503 0 2.17-.626 3.117-1.487C68.118 1.2 69.426 0 71.93 0c2.504 0 3.812 1.2 4.869 2.165.946.861 1.642 1.487 3.117 1.487 1.502 0 2.17-.626 3.116-1.487C84.09 1.2 85.398 0 87.903 0c2.504 0 3.812 1.2 4.87 2.165.945.861 1.64 1.487 3.116 1.487 1.502 0 2.17-.626 3.116-1.487C100.063 1.2 101.37 0 103.875 0c2.504 0 3.812 1.2 4.869 2.165.946.861 1.642 1.487 3.117 1.487s2.17-.626 3.116-1.487C116.035 1.2 117.343 0 119.847 0s3.812 1.2 4.87 2.165c.946.861 1.641 1.487 3.116 1.487 1.503 0 2.17-.626 3.117-1.487C132.007 1.2 133.315 0 135.819 0c2.504 0 3.812 1.2 4.87 2.165.946.861 1.641 1.487 3.116 1.487 1.503 0 2.171-.626 3.117-1.487C147.979 1.2 149.287 0 151.791 0c2.505 0 3.812 1.2 4.87 2.165.946.861 1.642 1.487 3.116 1.487 1.503 0 2.171-.626 3.117-1.487C163.951 1.2 165.259 0 167.763 0c2.505 0 3.813 1.2 4.87 2.165.946.861 1.642 1.487 3.117 1.487 1.502 0 2.17-.626 3.116-1.487C179.923 1.2 181.231 0 183.736 0c2.504 0 3.812 1.2 4.869 2.165.946.861 1.642 1.487 3.117 1.487 1.502 0 2.17-.626 3.116-1.487C195.896 1.2 197.203 0 199.708 0c2.504 0 3.812 1.2 4.869 2.165.946.861 1.642 1.487 3.117 1.487 1.503 0 2.17-.626 3.116-1.487C211.868 1.2 213.176 0 215.68 0s3.812 1.2 4.87 2.165c.946.861 1.641 1.487 3.116 1.487 1.503 0 2.171-.626 3.117-1.487C228.174 1.2 229.482 0 232.014 0c2.504 0 3.812 1.2 4.869 2.165.947.861 1.642 1.487 3.117 1.487s2.17-.626 3.117-1.487C244.174 1.2 245.482 0 247.986 0c2.504 0 3.812 1.2 4.87 2.165.946.861 1.641 1.487 3.116 1.487s2.171-.626 3.117-1.487C260.174 1.2 261.482 0 264.014 0s3.812 1.2 4.869 2.165c.947.861 1.642 1.487 3.117 1.487s2.17-.626 3.117-1.487C276.174 1.2 277.482 0 279.986 0c2.504 0 3.812 1.2 4.87 2.165.946.861 1.641 1.487 3.116 1.487 1.503 0 2.171-.626 3.117-1.487C292.146 1.2 293.454 0 295.958 0c2.505 0 3.812 1.2 4.87 2.165.946.861 1.642 1.487 3.116 1.487 1.475 0 2.171-.626 3.117-1.487C308.118 1.2 309.426 0 311.93 0c2.505 0 3.813 1.2 4.87 2.165.946.861 1.642 1.487 3.117 1.487V6H320z"/></svg><svg viewBox="0 0 768 24" id="zigzag-white" xmlns="http://www.w3.org/2000/svg"><path d="M749.784 0c-9.642 0-9.642 9.882-19.217 9.882S720.925 0 711.35 0c-9.574 0-9.641 9.882-19.216 9.882-9.642 0-9.642-9.882-19.284-9.882-9.641 0-9.641 9.882-19.216 9.882-9.642 0-9.642-9.882-19.217-9.882-9.641 0-9.641 9.882-19.216 9.882-9.575 0-9.843-9.882-19.418-9.882-9.641 0-9.641 9.882-19.216 9.882-9.575 0-9.709-9.882-19.284-9.882-9.641 0-9.641 9.882-19.216 9.882-9.642 0-9.642-9.882-19.284-9.882-9.641 0-9.641 9.882-19.216 9.882-9.642 0-9.642-9.882-19.217-9.882-9.574 0-9.708 9.882-19.35 9.882-9.642 0-9.642-9.882-19.217-9.882-9.641 0-9.641 9.882-19.216 9.882-9.642 0-9.642-9.882-19.284-9.882-9.641 0-9.641 9.882-19.216 9.882-9.642 0-9.642-9.882-19.217-9.882-9.641 0-9.641 9.882-19.216 9.882-9.642 0-9.642-9.882-19.217-9.882-9.641 0-9.641 9.882-19.283 9.882-9.642 0-9.642-9.882-19.284-9.882-9.641 0-9.641 9.882-19.283 9.882-9.642 0-9.642-9.882-19.284-9.882-9.641 0-9.641 9.882-19.283 9.882-9.642 0-9.642-9.882-19.283-9.882-9.642 0-9.642 9.882-19.284 9.882S181.791 0 172.15 0c-9.642 0-9.642 9.882-19.217 9.882-9.642 0-9.642-9.882-19.283-9.882-9.642 0-9.642 9.882-19.284 9.882S104.724 0 95.083 0C85.44 0 85.44 9.882 75.799 9.882S66.157 0 56.516 0C47.142 0 47.142 9.882 37.5 9.882 27.858 9.882 27.858 0 18.284 0 8.709 0 8.642 9.882-1 9.882V24h770V9.882c-9.642 0-9.642-9.882-19.216-9.882z"/></svg></svg>